<?xml version="1.0" standalone="no"?>
<!DOCTYPE svg PUBLIC "-//W3C//DTD SVG 1.1//EN" "http://www.w3.org/Graphics/SVG/1.1/DTD/svg11.dtd" >
<!--
2013-9-30: Created.
-->
<svg>
<metadata>
Created by iconfont
</metadata>
<defs>

<font id="profont" horiz-adv-x="1024" >
  <font-face
    font-family="profont"
    font-weight="500"
    font-stretch="normal"
    units-per-em="1024"
    ascent="896"
    descent="-128"
  />
    <missing-glyph />
    
    <glyph glyph-name="x" unicode="x" horiz-adv-x="1001"
d="M281 543q-27 -1 -53 -1h-83q-18 0 -36.5 -6t-32.5 -18.5t-23 -32t-9 -45.5v-76h912v41q0 16 -0.5 30t-0.5 18q0 13 -5 29t-17 29.5t-31.5 22.5t-49.5 9h-133v-97h-438v97zM955 310v-52q0 -23 0.5 -52t0.5 -58t-10.5 -47.5t-26 -30t-33 -16t-31.5 -4.5q-14 -1 -29.5 -0.5
t-29.5 0.5h-32l-45 128h-439l-44 -128h-29h-34q-20 0 -45 1q-25 0 -41 9.5t-25.5 23t-13.5 29.5t-4 30v167h911zM163 247q-12 0 -21 -8.5t-9 -21.5t9 -21.5t21 -8.5q13 0 22 8.5t9 21.5t-9 21.5t-22 8.5zM316 123q-8 -26 -14 -48q-5 -19 -10.5 -37t-7.5 -25t-3 -15t1 -14.5
t9.5 -10.5t21.5 -4h37h67h81h80h64h36q23 0 34 12t2 38q-5 13 -9.5 30.5t-9.5 34.5q-5 19 -11 39h-368zM336 498v228q0 11 2.5 23t10 21.5t20.5 15.5t34 6h188q31 0 51.5 -14.5t20.5 -52.5v-227h-327z" />
    

    
    <glyph glyph-name="xiangshang" unicode="&#58883;" d="M896 128l-80.896 0-131.072 0-155.648 0-159.744 0-141.312 0-100.352 0q-24.576 0-39.936 11.264t-20.992 28.672-0.512 38.4 22.528 41.472q37.888 40.96 79.872 86.016t86.016 91.136l86.016 92.16q44.032 46.08 83.968 89.088 18.432 19.456 44.032 28.672t52.736 8.704 53.248-11.776 45.568-31.744q70.656-73.728 147.456-159.744t160.768-184.32q19.456-23.552 26.624-46.592t2.56-40.96-20.48-29.184-40.448-11.264z"  horiz-adv-x="1024" />

    
    <glyph glyph-name="f14" unicode="&#58913;" d="M951.84384 39.164672 858.964992 176.534272c-3.65568 5.244928-11.283456 9.217024-20.578304 10.646528-9.218048 1.350656-19.068928 0-26.377216-3.8144L622.756864 86.277888c-8.582144-4.369408-12.314624-11.121664-9.852928-17.79712 2.622464-6.592512 11.123712-11.838464 21.92896-13.425664l49.975296-7.469056c-49.657856-58.3168-115.441664-93.751296-179.639296-93.751296-125.056 0-264.572928 137.21088-264.572928 333.852672 0 23.199744-31.14496 42.1888-69.599232 42.1888s-69.599232-18.989056-69.599232-42.1888c0-234.381312 177.334272-418.071552 403.770368-418.071552 127.916032 0 242.802688 57.759744 317.723648 157.154304l95.818752-14.45888c2.461696-0.319488 4.845568-0.477184 7.230464-0.477184 0.157696 0 0.157696 0 0.397312 0 16.446464 0 29.794304 8.024064 29.794304 17.954816C956.132352 33.285888 954.543104 36.383488 951.84384 39.164672L951.84384 39.164672zM185.933824 419.894016c-9.295872 1.429504-17.002496 5.243904-20.578304 10.645504L70.729728 570.29504c-4.289536 6.27712-2.224128 13.666304 5.08416 18.671616 7.310336 5.243904 18.910208 7.38816 29.715456 5.799936l95.8976-14.459904c74.923008 99.233792 189.80864 157.233152 317.725696 157.233152 226.435072 0 403.769344-183.770112 403.769344-418.151424 0-23.358464-31.143936-42.1888-69.600256-42.1888-38.453248 0-69.598208 18.830336-69.598208 42.1888 0 196.641792-139.437056 333.853696-264.57088 333.853696-64.196608 0-129.983488-35.434496-179.64032-93.75232l49.975296-7.469056c10.884096-1.826816 19.306496-6.832128 21.927936-13.426688 2.542592-6.674432-1.271808-13.66528-9.85088-18.034688l-189.33248-97.010688c-5.402624-2.78016-12.235776-4.13184-19.147776-4.13184C190.621696 419.416832 188.237824 419.576576 185.933824 419.894016z"  horiz-adv-x="1024" />

    
    <glyph glyph-name="wenjiantianjia" unicode="&#58969;" d="M143.104 51.136l0 515.2 181.248 0L324.352 739.264l353.28 0c12.096 0 21.888-10.688 21.888-23.744L699.52 442.88l99.648 0L799.168 802.176C799.104 818.688 785.728 832 769.344 832L286.72 832l-243.2-228.416 0-637.696C43.52-50.624 56.832-64 73.28-64l535.616 0 0 91.264L165.056 27.264C152.96 27.264 143.104 38.016 143.104 51.136zM980.48 238.848 826.752 238.848 826.752 384 670.656 384 670.656 238.848 517.056 238.848 517.056 86.528 670.656 86.528 670.656-64 826.752-64 826.752 86.528 980.48 86.528Z"  horiz-adv-x="1024" />

    
    <glyph glyph-name="sun" unicode="&#59008;" d="M512 580.625c-161.353 0-292.625-131.273-292.625-292.625s131.273-292.625 292.625-292.625 292.625 131.273 292.625 292.625-131.273 292.625-292.625 292.625zM512 26.178c-144.373 0-261.822 117.451-261.822 261.822s117.451 261.822 261.822 261.822 261.822-117.451 261.822-261.822-117.451-261.822-261.822-261.822zM512 611.428c8.506 0 15.402 6.889 15.402 15.402v123.211c0 8.513-6.896 15.402-15.402 15.402s-15.402-6.889-15.402-15.402v-123.211c0-8.513 6.896-15.402 15.402-15.402zM512-35.428c-8.506 0-15.402-6.889-15.402-15.402v-123.211c0-8.513 6.896-15.402 15.402-15.402s15.402 6.889 15.402 15.402v123.211c0 8.513-6.896 15.402-15.402 15.402zM261.518 516.704c3.008-3.008 6.948-4.512 10.89-4.512 3.94 0 7.881 1.504 10.89 4.512 6.016 6.016 6.016 15.763 0 21.778l-87.121 87.129c-6.016 6.016-15.763 6.016-21.778 0-6.016-6.016-6.016-15.763 0-21.778l87.121-87.129zM762.475 59.311c-6.016 6.016-15.763 6.016-21.778 0-6.016-6.016-6.016-15.763 0-21.778l87.121-87.129c3.008-3.008 6.948-4.512 10.89-4.512 3.94 0 7.881 1.504 10.89 4.512 6.016 6.016 6.016 15.763 0 21.778l-87.121 87.129zM188.572 288c0 8.513-6.896 15.402-15.402 15.402h-123.211c-8.506 0-15.402-6.889-15.402-15.402s6.896-15.402 15.402-15.402h123.211c8.506 0 15.402 6.889 15.402 15.402zM974.039 303.402h-123.211c-8.506 0-15.402-6.889-15.402-15.402s6.896-15.402 15.402-15.402h123.211c8.506 0 15.402 6.889 15.402 15.402s-6.896 15.402-15.402 15.402zM261.518 59.311l-87.121-87.129c-6.016-6.016-6.016-15.763 0-21.778 3.008-3.008 6.948-4.512 10.89-4.512s7.881 1.504 10.89 4.512l87.121 87.129c6.016 6.016 6.016 15.763 0 21.778-6.016 6.016-15.762 6.016-21.778 0zM751.586 512.192c3.94 0 7.881 1.504 10.89 4.512l87.121 87.129c6.016 6.016 6.016 15.763 0 21.778-6.016 6.016-15.763 6.016-21.778 0l-87.121-87.129c-6.016-6.016-6.016-15.763 0-21.778 3.007-3.008 6.948-4.512 10.89-4.512z"  horiz-adv-x="1024" />

    
    <glyph glyph-name="xuanze" unicode="&#58887;" d="M281.612 44.038 76.822 44.038c-42.34 0-76.796 34.456-76.796 76.797L0.026 735.204C0.026 777.544 34.482 812 76.822 812l716.765 0c42.34 0 76.796-34.456 76.796-76.796l0-358.382c0-14.13-11.469-25.599-25.599-25.599-14.131 0-25.599 11.469-25.599 25.599L819.185 735.204c0 14.131-11.469 25.599-25.599 25.599L76.822 760.803c-14.13 0-25.599-11.468-25.599-25.599l0-614.369c0-14.131 11.469-25.6 25.599-25.6l204.79 0c14.131 0 25.599-11.468 25.599-25.599C307.21 55.507 295.742 44.038 281.612 44.038L281.612 44.038zM665.592-211.949c-10.137 0-19.762 6.093-23.756 16.076l-86.882 217.18L403.256-152.048c-7.014-8.038-18.277-10.854-28.261-7.116s-16.588 13.312-16.588 23.96L358.407 632.758c0 10.137 5.99 19.301 15.257 23.397 9.267 4.096 20.069 2.355 27.596-4.454l563.172-511.974c7.833-7.116 10.495-18.329 6.655-28.159-3.84-9.829-13.312-16.383-23.858-16.383L729.076 95.185l88.367-220.865c5.273-13.107-1.126-28.006-14.284-33.278l-127.993-51.198c-3.123-1.229-6.349-1.843-9.523-1.843L665.592-211.949zM563.198 95.235c1.434 0 2.867-0.102 4.301-0.357 8.806-1.485 16.127-7.476 19.454-15.718l92.872-232.231 80.482 32.203-92.872 232.231c-3.174 7.884-2.201 16.844 2.561 23.857 4.761 7.015 12.696 11.264 21.195 11.264L880.98 146.484 409.605 575.007l0-641.965 134.343 153.541c4.914 5.581 11.929 8.755 19.25 8.755L563.198 95.235z"  horiz-adv-x="1024" />

    
    <glyph glyph-name="tuichu" unicode="&#58917;" d="M768.002501 812 255.997499 812c-141.373881 0-255.997499-114.623618-255.997499-256.003751l0-511.997499c0-141.376382 114.623618-255.99875 255.997499-255.99875l512.006252 0c141.377632 0 256.00125 114.626119 256.00125 255.99875l0 511.997499C1024.005002 697.376382 909.381383 812 768.002501 812zM500.822484 605.100293l20.554425 0 0-238.777948-20.554425 0L500.822484 605.100293zM785.715969 180.929884c-14.778729-36.461034-36.497296-69.165803-64.540495-97.210252-28.045699-28.044449-60.749217-49.758014-97.211502-64.540495-35.206862-14.27731-72.414397-21.515999-110.579756-21.515999s-75.367893 7.238689-110.579756 21.515999c-36.462285 14.78248-69.167053 36.497296-97.211502 64.540495s-49.761765 60.749217-64.541745 97.210252c-14.27606 35.211863-21.514749 72.414397-21.514749 110.582257 0 38.164108 7.238689 75.370393 21.514749 110.582257 14.77998 36.458533 36.497296 69.167053 64.541745 97.212752 21.824853 21.819851 46.847033 39.999726 74.375058 54.030704l8.235275-16.157944c-25.831203-13.168187-49.311614-30.222682-69.789763-50.699581-52.066292-52.067542-80.744704-121.310871-80.744704-194.966937 0-73.659817 28.679663-142.899395 80.744704-194.970688 107.508721-107.502469 282.430155-107.502469 389.937625 0 52.067542 52.071294 80.744704 121.310871 80.744704 194.970688 0 73.657316-28.678412 142.900645-80.744704 194.966937-21.659797 21.657297-46.590697 39.443289-74.101216 52.867812l7.952679 16.299241c29.318628-14.30732 55.89008-33.261206 78.970356-56.341482 28.044449-28.044449 49.761765-60.752969 64.540495-97.212752 14.27731-35.210613 21.515999-72.418149 21.515999-110.582257C807.231968 253.344281 799.993279 216.141747 785.715969 180.929884z"  horiz-adv-x="1025" />

    
    <glyph glyph-name="xiangji" unicode="&#59128;" d="M264.673543 688.486942c41.949414 0 76.668147-30.726815 82.508155-70.650083L182.126502 617.836859C187.925578 657.760127 222.685243 688.486942 264.673543 688.486942L264.673543 688.486942zM582.530868 523.74897c78.039377 0 148.689461-31.66007 199.834304-82.816171 51.16531-51.105958 82.805938-121.79595 82.805938-199.844537 0-77.999468-31.640628-148.689461-82.805938-199.85477-51.144844-51.145867-121.794927-82.786495-199.834304-82.786495-77.999468 0-148.689461 31.640628-199.834304 82.786495-51.16531 51.16531-82.786495 121.855302-82.786495 199.85477 0 78.048587 31.621185 148.738579 82.786495 199.844537C433.841408 492.0889 504.5314 523.74897 582.530868 523.74897L582.530868 523.74897zM565.866327 374.483388c-34.361599 21.352307-83.20298-0.576121-109.163235-49.010227-25.980721-48.444339-19.147082-105.021915 15.214517-126.374222 34.361599-21.381983 51.562353 21.054525 77.54205 69.488631C575.380004 317.002232 600.188017 353.101405 565.866327 374.483388L565.866327 374.483388zM716.223776 374.15593c-34.143635 34.034141-81.256652 55.087643-133.315308 55.087643-52.05968 0-99.193163-21.054525-133.336798-55.087643-34.102702-34.024931-55.196113-81.107249-55.196113-133.067668s21.093411-98.993618 55.196113-133.017526c34.143635-34.084283 81.277118-55.137785 133.336798-55.137785 52.058656 0 99.171674 21.053502 133.315308 55.137785 34.103726 34.023908 55.197136 81.058131 55.197136 133.017526S750.327502 340.132022 716.223776 374.15593L716.223776 374.15593zM441.309496 688.784724l-70.689992-117.813243-212.04951 0c-58.037834 0-94.266967-36.2189-94.266967-94.256734l0-471.253994c0-58.017368 36.229133-94.246501 94.266967-94.246501l706.880479 0c58.017368 0 94.246501 36.228109 94.246501 94.246501L959.696973 476.714747c0 58.037834-36.228109 94.256734-94.246501 94.256734l-47.134507 0-70.689992 117.813243L441.309496 688.784724z"  horiz-adv-x="1024" />

    
    <glyph glyph-name="iconfontqian" unicode="&#58890;" d="M543.744-64c-229.376 0-416 186.624-416 416S314.368 768 543.744 768s416-186.624 416-416S773.12-64 543.744-64zM543.744 704c-194.112 0-352-157.888-352-352s157.888-352 352-352c194.112 0 352 157.888 352 352S737.856 704 543.744 704zM543.808 64c-17.664 0-32 14.336-32 32l0 320c0 17.664 14.336 32 32 32 17.728 0 32-14.336 32-32l0-320C575.744 78.336 561.472 64 543.808 64zM671.744 320l-256 0c-17.664 0-32 14.336-32 32S398.08 384 415.744 384l256 0c17.664 0 32-14.336 32-32S689.408 320 671.744 320zM543.744 384C535.552 384 527.36 387.136 521.152 393.344c-12.48 12.48-12.48 32.768 0 45.248l128 128c12.48 12.48 32.768 12.48 45.248 0s12.48-32.768 0-45.248l-128-128C560.128 387.136 551.936 384 543.744 384zM544 384.128c-8.192 0-16.384 3.136-22.656 9.344l-128 128c-12.48 12.48-12.48 32.768 0 45.248s32.768 12.48 45.248 0l128-128c12.48-12.48 12.48-32.768 0-45.248C560.384 387.264 552.192 384.128 544 384.128zM671.744 192l-256 0c-17.664 0-32 14.336-32 32S398.08 256 415.744 256l256 0c17.664 0 32-14.336 32-32S689.408 192 671.744 192z"  horiz-adv-x="1024" />

    
    <glyph glyph-name="tianjia1" unicode="&#58923;" d="M507.84256 380.96896M507.84256 380.96896M804.70016 831.52896c-132.3008 0-592.62976 0-592.62976 0-72.37632 0-154.8288-63.26272-154.8288-161.56672 0 0 0-522.07616 0-580.8128 0-74.87488 61.05088-158.74048 159.744-158.74048 130.27328 0 445.0304 0 583.94624 0 46.05952 0 157.45024 36.51584 157.45024 165.43744 0 142.6432 0 515.15392 0 574.70976C958.40256 781.39392 863.4368 831.52896 804.70016 831.52896zM912.7936 94.86336c0-119.93088-113.27488-119.02976-113.27488-119.02976s-462.68416 0-579.2768 0-118.35392 113.39776-118.35392 113.39776L101.888 670.53568c0 69.14048 53.5552 116.9408 118.35392 116.9408 0 0 451.91168 0 570.368 0s122.20416-108.72832 122.20416-108.72832S912.7936 214.85568 912.7936 94.86336zM218.7264 403.43552 218.7264 359.09632 485.29408 359.09632 485.29408 91.83232 530.35008 91.83232 530.35008 358.37952 796.91776 358.37952 796.91776 403.43552 530.35008 403.43552 530.35008 670.04416 485.29408 670.04416 485.29408 403.43552Z"  horiz-adv-x="1024" />

    
    <glyph glyph-name="arrow_down" unicode="&#58933;" d="M511.867 150.242c6.424 0 12.258 2.487 16.639 6.524l0.142-0.107 424.143 424.139c0.466 0.427 0.914 0.874 1.341 1.342l0.272 0.272h-0.024c3.284 3.719 5.292 8.591 5.292 13.941 0 11.651-9.444 21.094-21.094 21.094-6.823 0-12.871-3.253-16.727-8.278l-0.146 0.19-392.724-392.724c-0.124-0.111-15.426-13.909-33.535-0.293l-393.598 393.543c-3.867 4.797-9.783 7.872-16.423 7.872-11.651 0-21.095-9.444-21.095-21.094 0-6.441 2.894-12.196 7.443-16.064-0.072 0.001-0.151-0.005-0.224-0.004l421.191-421.194c4.506-5.581 11.396-9.159 19.13-9.159z"  horiz-adv-x="1024" />

    
    <glyph glyph-name="iconfontfanhui1" unicode="&#58924;" d="M729.972918-7.68375l-393.880789 391.691937 393.880789 391.68068c10.270924 10.214642 11.294231 25.719778 2.334161 34.666544-9.002025 8.925277-24.607444 7.902994-34.877345-2.322905L291.499515 404.382213c-5.846148-5.824659-8.601912-13.382798-8.270361-20.463054-0.267083-7.03523 2.468215-14.525831 8.314363-20.306488l405.885194-403.662573c10.269901-10.180873 25.919323-11.248182 34.877345-2.312672C741.267149-33.423995 740.243843-17.908626 729.972918-7.68375z"  horiz-adv-x="1024" />

    
    <glyph glyph-name="ziliao" unicode="&#58999;" d="M945.087471 212.290955 945.087471 526.689083l-0.014596 3.624607L945.072875 787.492903c0 51.858632-42.190177 94.04516-94.050026 94.04516L172.85775 881.538063C120.999117 881.538063 78.81259 839.351535 78.81259 787.492903l0.014596-807.929663c0-51.854983 42.185312-94.046377 94.040295-94.046377l316.47802 0c14.463153 0 26.227312 11.764159 26.227312 26.227312 0 14.461937-11.764159 26.226096-26.227312 26.226096L172.85775-62.029728c-22.933542 0-41.586887 18.65821-41.586887 41.592968l0.014596 807.934528c0 22.933542 18.653344 41.586887 41.586887 41.586887l678.1651 0c22.933542 0 41.586887-18.65821 41.586887-41.586887l-0.00973-557.778294-236.268396 0c-30.730095 0-55.726501-25.001271-55.726501-55.732583l0-258.323762c0-19.11311 7.212724-30.525755 19.289475-30.525755 7.217589 0 15.427688 4.394531 23.742389 12.704368l288.844652 288.845868c7.436525 7.440174 11.78362 14.899809 12.562059 21.560327C945.220049 209.611422 945.229779 210.971258 945.087471 212.290955L945.087471 212.290955zM853.19883 179.046745l-201.907613-201.907613L651.291217 173.991757c0 2.694129 2.360859 5.054988 5.054988 5.054988L853.19883 179.046745 853.19883 179.046745zM212.99601 598.251952l596.866878 0c16.5248 0 29.971117 13.445101 29.971117 29.969901 0 16.529665-13.446317 29.975983-29.971117 29.975983L212.99601 658.197836c-16.529665 0-29.969901-13.446317-29.969901-29.975983C183.026109 611.697053 196.466345 598.251952 212.99601 598.251952L212.99601 598.251952zM212.99601 375.077143l596.876609 0 0 0c7.976567 0 15.493368 3.127135 21.166243 8.804875 5.672874 5.672874 8.80001 13.193325 8.80001 21.171108 0 16.5248-13.446317 29.971117-29.975983 29.971117L212.99601 435.024243c-16.529665 0-29.969901-13.446317-29.969901-29.971117C183.026109 388.52346 196.466345 375.077143 212.99601 375.077143L212.99601 375.077143zM212.99601 375.077143"  horiz-adv-x="1024" />

    
    <glyph glyph-name="yu" unicode="&#58973;" d="M161.635874 61.18744400000003c-8.265471 4.132735-17.90852 0.918386-22.041256-7.347085l-58.776682-116.634978c-4.132735-8.265471-0.918386-17.90852 7.347085-22.041256 2.295964-1.377578 5.051121-1.836771 7.347085-1.836771 5.969507 0 11.939013 3.21435 14.69417 9.183857l58.776682 116.634978C172.656502 47.411658999999986 169.442152 57.054709 161.635874 61.18744400000003L161.635874 61.18744400000003 161.635874 61.18744400000003zM370.109417 61.18744400000003c-8.265471 4.132735-17.90852 0.918386-22.041256-7.347085l-58.776682-116.634978c-4.132735-8.265471-0.918386-17.90852 7.347085-22.041256 2.295964-1.377578 5.051121-1.836771 7.347085-1.836771 5.969507 0 11.479821 3.21435 14.69417 9.183857l58.776682 116.634978C381.589238 47.411658999999986 378.374888 57.054709 370.109417 61.18744400000003L370.109417 61.18744400000003 370.109417 61.18744400000003zM579.042152 61.18744400000003c-8.265471 4.132735-17.90852 0.918386-22.041256-7.347085l-58.776682-116.634978c-4.132735-8.265471-0.918386-17.90852 7.347085-22.041256 2.295964-1.377578 5.051121-1.836771 7.347085-1.836771 5.969507 0 11.939013 3.21435 14.69417 9.183857l58.776682 116.634978C590.521973 47.411658999999986 587.307623 57.054709 579.042152 61.18744400000003L579.042152 61.18744400000003 579.042152 61.18744400000003zM787.974888 61.18744400000003c-8.265471 4.132735-17.90852 0.918386-22.041256-7.347085L707.156951-62.79461900000001c-4.132735-8.265471-0.918386-17.90852 7.347085-22.041256 2.295964-1.377578 5.051121-1.836771 7.347085-1.836771 5.969507 0 11.939013 3.21435 14.69417 9.183857l58.776682 116.634978C799.454709 47.411658999999986 795.781166 57.054709 787.974888 61.18744400000003L787.974888 61.18744400000003 787.974888 61.18744400000003zM810.475336 173.23049300000002L246.586547 173.23049300000002c-3.673543 0-7.806278 0-11.479821-0.459193l0 0.459193c-91.838565 0-167.146188 74.84843-167.146188 167.146188s74.84843 167.146188 167.146188 167.146188c12.857399 0 26.633184-1.836771 40.408969-5.051121 4.591928-0.918386 9.183857-0.459193 12.857399 2.295964 3.673543 2.755157 6.4287 6.4287 6.887892 11.020628 18.826906 118.930942 119.390135 205.259193 239.698655 205.259193 134.084305 0 242.913004-108.8287 242.913004-242.913004 0-6.4287-0.459193-12.857399-0.918386-19.745291-0.459193-5.051121 1.377578-9.643049 5.051121-13.316592 3.673543-3.21435 8.265471-5.051121 13.316592-4.591928 5.051121 0.459193 9.643049 0.918386 14.69417 0.918386 73.930045 0 134.084305-60.15426 134.084305-134.084305C944.100448 233.38475300000005 884.405381 173.23049300000002 810.475336 173.23049300000002L810.475336 173.23049300000002 810.475336 173.23049300000002zM1011.142601 650.331839c-10.102242 0-20.663677-0.918386-31.225112-2.755157-27.55157 126.278027-138.21704 215.820628-269.086996 215.820628-56.93991 0-111.583857-17.449327-157.962332-50.052018-7.347085-5.051121-9.183857-15.612556-4.132735-22.959641 5.051121-7.347085 15.612556-9.183857 22.959641-4.132735 40.868161 28.469955 89.083408 43.623318 139.135426 43.623318 120.30852 0 220.871749-86.328251 239.698655-205.259193 0.918386-4.591928 3.21435-8.724664 6.887892-11.020628 3.673543-2.295964 8.724664-3.21435 12.857399-2.295964 13.775785 3.21435 27.092377 5.051121 40.408969 5.051121 91.838565 0 167.146188-74.84843 167.146188-167.146188 0-85.869058-64.286996-157.503139-149.696861-166.227803-9.183857-0.918386-15.612556-8.724664-14.69417-17.90852 0.918386-8.265471 7.806278-14.69417 16.071749-14.69417 0.459193 0 0.918386 0 1.836771 0 101.940807 10.561435 179.085202 95.9713 179.085202 198.830493C1210.89148 560.7892380000001 1121.348879 650.331839 1011.142601 650.331839L1011.142601 650.331839 1011.142601 650.331839zM811.393722 474.001794l0 3.673543c0 151.992825-123.52287 275.974888-275.974888 275.974888-130.869955 0-241.535426-90.001794-269.086996-215.820628-10.561435 1.836771-21.12287 2.755157-31.225112 2.755157C125.359641 540.1255610000001 35.357848 450.58296 35.357848 340.37668199999996c0-110.206278 89.542601-199.748879 199.748879-199.748879l149.237668 0 426.130942 0c91.838565 0 166.686996 74.84843 166.686996 166.686996C977.162332 398.69417 902.773094 473.542601 811.393722 474.001794L811.393722 474.001794zM811.393722 474.001794"  horiz-adv-x="1240" />

    
    <glyph glyph-name="rili" unicode="&#58963;" d="M377.119545 273.580145l-52.375881 0c-19.530822 0-35.343973-16.07921-35.343973-35.94363l0-53.263088c0-19.844977 15.813151-35.933397 35.343973-35.933397l52.375881 0c19.521612 0 35.342949 16.089443 35.342949 35.933397l0 53.263088C412.462494 257.492748 396.641157 273.580145 377.119545 273.580145L377.119545 273.580145 377.119545 273.580145zM542.668998 273.580145l-52.290947 0c-19.530822 0-35.428907-16.07921-35.428907-35.94363l0-53.263088c0-19.844977 15.899108-35.933397 35.428907-35.933397l52.290947 0c19.531845 0 35.342949 16.089443 35.342949 35.933397l0 53.263088C578.011948 257.492748 562.199821 273.580145 542.668998 273.580145L542.668998 273.580145 542.668998 273.580145zM542.668998 429.813419l-52.290947 0c-19.530822 0-35.428907-16.07921-35.428907-35.933397l0-53.253878c0-19.779486 15.899108-35.94363 35.428907-35.94363l52.290947 0c19.531845 0 35.342949 16.164145 35.342949 35.94363l0 53.253878C578.011948 413.734208 562.199821 429.813419 542.668998 429.813419L542.668998 429.813419 542.668998 429.813419zM708.30441 429.813419l-52.367695 0c-19.539009 0-35.353183-16.07921-35.353183-35.933397l0-53.253878c0-19.779486 15.812127-35.94363 35.353183-35.94363l52.367695 0c19.531845 0 35.341926 16.164145 35.341926 35.94363l0 53.253878C743.646336 413.734208 727.827045 429.813419 708.30441 429.813419L708.30441 429.813419 708.30441 429.813419zM708.30441 273.580145l-52.367695 0c-19.539009 0-35.353183-16.07921-35.353183-35.94363l0-53.263088c0-19.844977 15.812127-35.933397 35.353183-35.933397l52.367695 0c19.531845 0 35.341926 16.089443 35.341926 35.933397l0 53.263088C743.646336 257.492748 727.827045 273.580145 708.30441 273.580145L708.30441 273.580145 708.30441 273.580145zM832.110133 699.932486l-37.841863 0c-14.620999 0-26.399253-12.053524-26.399253-26.912953l0-63.180971c0-46.692439-37.278022-84.524069-83.112929-84.524069-45.919842 0-83.123162 37.83163-83.123162 84.524069l0.001023 63.180971c0 14.859429-11.864212 26.912953-26.474978 26.912953L450.150862 699.932486c-14.600533 0-26.473955-12.053524-26.473955-26.912953l0-63.180971c0-46.692439-37.193087-84.524069-83.037205-84.524069-45.919842 0-83.113953 37.83163-83.113953 84.524069l0 63.180971c0 14.859429-11.863189 26.912953-26.473955 26.912953l-41.72224 0c-32.834826 0-59.471486-27.074635-59.471486-60.473303l0-574.049195c0-33.398668 26.63666-60.48149 59.471486-60.48149l642.780579 0c32.844036 0 59.470463 27.082822 59.470463 60.48149L891.580596 639.469416C891.580596 672.85785 864.954169 699.932486 832.110133 699.932486L832.110133 699.932486 832.110133 699.932486zM812.340881 112.428861c0-0.572028 0-1.143033-0.085958-1.727341-0.802272-13.618159-11.617595-24.451902-25.015743-25.109887-0.48607-0.086981-0.88516-0.086981-1.372254-0.086981-0.401136 0-0.887206 0-1.289366 0.086981L236.947062 85.591633c-0.487094-0.086981-0.886183-0.086981-1.373277-0.086981-0.399089 0-0.886183 0-1.364067 0.086981-13.485129 0.666172-24.299429 11.741415-25.02393 25.433252L209.185788 459.262124c0.724501 14.277168 12.263301 25.520233 26.387997 25.520233l550.292118 0c14.048971 0 25.586748-11.082406 26.38902-25.110911 0.084934-0.572028 0.084934-1.154289 0.084934-1.717108 0-0.656963 0-1.153266-0.084934-1.725294l0-342.076936C812.340881 113.572918 812.340881 113.002936 812.340881 112.428861L812.340881 112.428861 812.340881 112.428861zM684.346765 563.307805c25.340131 0 45.75816 20.847817 45.75816 46.529733l0.325411 0L730.430336 726.120938c-2.90005 22.887266-22.107507 40.531112-45.348837 40.531112-25.263383 0-45.75816-20.847817-45.75816-46.529733l-0.334621 0 0-116.273167C641.907187 580.951651 661.105435 563.307805 684.346765 563.307805L684.346765 563.307805 684.346765 563.307805zM340.649935 563.307805c25.25315 0 45.74895 20.847817 45.74895 46.529733l0.323365 0L386.72225 726.120938c-2.898003 22.887266-22.115694 40.531112-45.356001 40.531112-25.339108 0-45.747927-20.847817-45.747927-46.529733l-0.324388 0 0-116.273167C298.116213 580.951651 317.409628 563.307805 340.649935 563.307805L340.649935 563.307805 340.649935 563.307805z"  horiz-adv-x="1024" />

    
    <glyph glyph-name="shijianzhongbiao2" unicode="&#59409;" d="M480 832C215.04 832 0 616.96 0 352 0 87.04 215.04-128 480-128S960 87.04 960 352C960 616.96 744.96 832 480 832zM736 320l-256 0C462.08 320 448 334.08 448 352l0 256C448 625.92 462.08 640 480 640S512 625.92 512 608L512 384l224 0C753.92 384 768 369.92 768 352 768 334.08 753.92 320 736 320z"  horiz-adv-x="1024" />

    
    <glyph glyph-name="renyuan" unicode="&#58891;" d="M520.397088-127.766744c-59.077075 0-118.161043-0.544933-177.228862 0.197334-37.474727 0.470293-74.98963 1.954629-112.366872 4.648178-33.841972 2.437526-67.444071 7.643241-99.015719 21.199606-17.724009 7.61114-33.119202 18.284894-42.695212 35.79089-5.724061 10.464997-7.667268 21.764036-8.082417 33.526474-2.240389 63.506059 9.699886 123.851821 40.912709 179.633303 40.560383 72.487901 99.969105 123.516826 177.369871 153.514727 39.953611 15.484801 81.57294 22.274504 124.312858 22.344418 65.640691 0.108908 131.283746 0.253462 196.923453-0.027572 87.05378-0.371626 164.12093-28.323122 229.463454-86.124617 58.281044-51.555543 94.396294-116.025032 108.151371-192.815678 4.922318-27.476674 5.776841-55.21587 4.292307-82.943642-1.32127-24.678945-15.13602-42.107937-35.737913-54.551788-21.035555-12.706569-44.432026-18.739038-68.265311-23.095744-56.896359-10.399613-114.508594-10.834457-172.057809-11.302386-55.322611-0.449614-110.650933-0.097485-165.976893-0.097485C520.395907-127.871122 520.397088-127.801012 520.397088-127.766744zM781.2063 610.915988c0.005711-111.404426-74.335789-212.947475-186.578982-248.966422-142.970559-45.880717-294.250805 32.2119-339.702586 172.904257-33.489646 103.666063 2.463916 219.110713 88.486519 286.229045C384.647531 853.256758 431.138565 872.633684 483.093305 878.030825c135.593384 14.085345 256.875729-72.493612 289.654225-198.190958C778.36032 658.316688 780.94693 636.414991 781.2063 610.915988z"  horiz-adv-x="1024" />

    
    <glyph glyph-name="bianji" unicode="&#58974;" d="M548.589-19.418l87.075 0 28.985 0 29.06 0c55.835-3.615 58.03 33.665 58.03 58.205l0 87.275 0 87.29C751.738 213.347 566.124-6.728 548.589-19.418M375.394-7.563c-5.78-20.695-0.482-21.345 18.272-15.065 43.345 14.415 130.432 84.435 130.432 84.435l-81.235 70.75C442.864 132.562 386.167 30.667 375.394-7.563M941.808 526.586l-55.38 46.135c-10.94 9.19-23.27 13.367-32.65 2.67L543.954 246.682l-71.632-83.03 92.707-81.67 33.525 39.4c15.27 17.415 29.07 33.075 35.81 40.79l2.03 2.335c1.475 1.73 2.52 2.82 2.52 2.82l304.279 328.694C952.543 506.686 952.693 517.413 941.808 526.586M716.108 495.554c58.215 66.717 43.695 50.865 43.695 50.865l-5.91 187.955c0 27.655 7.765 67.61-65.405 65.55L165.227 799.924c-77.48 2.052-65.4-37.92-65.4-65.55l0.037-298.714 0-19.512 0-42.735 0-32.19-0.037-295.319c0-27.645-3.897-61.455 65.4-65.565l163.495 0 83.432 186.96L716.108 495.554 716.108 495.554zM213.254 718.545l433.244 0c17.08 0 30.935-13.577 30.935-30.297 0-16.722-13.855-30.26-30.935-30.26L213.254 657.988c-17.1 0-30.95 13.537-30.95 30.26C182.305 704.968 196.149 718.545 213.254 718.545M213.254 577.206l433.244 0c17.08 0 30.935-13.557 30.935-30.287 0-16.715-13.855-30.257-30.935-30.257L213.254 516.662c-17.1 0-30.95 13.542-30.95 30.257C182.305 563.648 196.149 577.206 213.254 577.206M213.254 375.336c-17.1 0-30.95 13.547-30.95 30.26 0 16.732 13.85 30.337 30.95 30.337l268.204 0c17.06 0 30.922-13.605 30.922-30.337 0-16.712-13.862-30.26-30.922-30.26L213.254 375.336 213.254 375.336z"  horiz-adv-x="1024" />

    
    <glyph glyph-name="cf-c102" unicode="&#59004;" d="M939.2 515.2v1.6c0 20.8-16 36.8-36.8 36.8s-36.8-16-36.8-36.8v-123.2c0-1.6 0-3.2 0-4.8v-289.6c0-97.6-22.4-116.8-116.8-116.8l-497.6-0c-102.4 0-116.8 28.8-116.8 116.8l0 499.2c-1.6 97.6 20.8 116.8 116.8 116.8h419.2c20.8 0 36.8 16 36.8 36.8s-16 36.8-36.8 36.8h-123.2c0 0 0 0 0 0h-340.8c-80 0-147.2-65.6-147.2-147.2v-587.2c0-80 65.6-147.2 147.2-147.2h587.2c80 0 147.2 65.6 147.2 147.2l-1.6 460.8zM665.6 432c-16-16-41.6-16-57.6 0v0c-16 16-16 41.6 0 57.6l233.6 238.4c16 16 41.6 16 57.6 0v0c16-16 16-41.6 0-57.6l-233.6-238.4zM665.6 491.2c16-16 16-41.6 0-57.6v0c-16-16-41.6-16-57.6 0l-99.2 102.4c-16 16-16 41.6 0 57.6v0c16 16 41.6 16 57.6 0l99.2-102.4zM665.6 491.2z"  horiz-adv-x="1024" />

    
    <glyph glyph-name="lajitong" unicode="&#58931;" d="M758.009462-62.445982c20.407796 0 38.458917 3.143597 54.122665 9.403161 15.677051 6.28924 28.967752 14.614859 39.915082 24.921599 10.93198 10.336416 19.301602 22.360264 25.13854 36.013215 5.836939 13.654998 8.749268 27.862581 8.749268 42.621726L885.935016 555.111123l72.17174 0 0 6.638187c0 2.213411 0.174985 4.803399 0.524956 7.744381 0.3776 2.969635 0.552585 7.045463 0.552585 12.198833 0 11.062963-1.630127 23.058159-4.920056 35.984562-3.275603 12.926404-9.112542 24.921599-17.483186 35.984562l0 0c-8.383948 11.062963-19.680225 20.292162-33.903158 27.687596-14.207583 7.365758-32.256658 11.062963-54.122665 11.062963l-50.279127 0c-17.497513 0-33.903158 0.378623-49.201585 1.106194l0 68.64952c0 19.21462-4.92108 35.634592-14.761192 49.28959-9.840112 13.654998-27.51261 20.467147-53.045123 20.467147L339.254146 831.924659c-18.952654 0-34.979676-6.812149-48.109718-20.467147-13.131065-13.653975-19.681248-30.073946-19.681248-49.28959l0-67.543326-97.298 0c-18.952654 0-35.358299-3.318582-49.202609-9.956769-13.857613-6.638187-25.15389-14.935154-33.902134-24.921599-8.748245-9.956769-15.299451-20.845771-19.680225-32.664957-4.381797-11.82021-6.565533-22.50455-6.565533-32.112372 0-19.185968 0.378623-30.627555 1.107217-34.32476 0-2.940982 0.363274-4.803399 1.076518-5.531993l67.805292 0 0-493.533416c0-19.185968 3.464915-36.363186 10.379395-51.501978 6.91448-15.110139 16.405645-28.03552 28.429493-38.749536s26.420743-18.98233 43.175335-24.921599c16.769942-5.880941 34.630728-8.850575 53.583382-8.850575M339.254146 762.166899l342.215082 0 0-69.755714L339.254146 692.411185 339.254146 762.166899 339.254146 762.166899zM340.346013 113.632269c0-30.277584-11.6749-45.417399-34.994002-45.417399-12.388145 0-20.947078 3.697205-25.678846 11.063987-4.745071 7.395434-7.103792 18.835997-7.103792 34.353412l0 437.054077 67.776639 0L340.346013 113.632269 340.346013 113.632269zM543.703561 113.632269c0-15.517415-2.183735-26.784016-6.550183-33.800827-4.367471-6.987135-12.751419-10.509355-25.15389-10.509355-24.047696 0-36.071543 14.760169-36.071543 44.310182l0 437.054077 67.775616 0L543.703561 113.632269 543.703561 113.632269zM750.353085 115.844657c0-15.517415-2.183735-26.784016-6.550183-33.771151-4.367471-7.016811-13.115716-10.539031-26.231431-10.539031-24.063045 0-36.101219 14.760169-36.101219 44.310182L681.470251 550.686347l68.882833 0L750.353085 115.844657 750.353085 115.844657zM750.353085 115.844657"  horiz-adv-x="1024" />

    
    <glyph glyph-name="xiangmugailan" unicode="&#58954;" d="M1012.266458 413.6 535.466458 822.7c-13.3 11.3-32.8 11.3-46.1 0L12.466458 413.6c-11.3-9.2-15.4-25.6-10.3-39S20.666458 351 36.066458 351l142.5 0 0-393.8c0-19.5 16.4-35.9 35.9-35.9l187.7 0c19.5 0 35.9 16.4 35.9 35.9L438.066458 134.7l166.1 0 0-177.4c0-19.5 16.4-35.9 35.9-35.9l189.7 0c19.5 0 35.9 16.4 35.9 35.9l0 394.8 117.9 0c12.3-2.1 24.6 3.1 33.8 13.3C1028.766458 380.8 1026.666458 401.3 1012.266458 413.6L1012.266458 413.6zM793.866458-6.8l-119 0L674.866458 170.6c0 19.5-16.4 35.9-35.9 35.9L402.166458 206.5c-19.5 0-35.9-16.4-35.9-35.9l0-177.4-119 0 0 393.8c0 19.5-16.4 35.9-35.9 35.9l-82 0 382.5 326.1 377.4-324-72.8 0c-9.2 0-24.6-6.2-24.6-22.6l0-50.2 1 0 0-358.9L793.866458-6.7z"  horiz-adv-x="1025" />

    
    <glyph glyph-name="handodown" unicode="&#59216;" d="M877.714286 347.428571q0 48-18.285714 104.571429t-36.571429 110.857143-18.285714 95.428571l0 18.285714-365.714286 0 0-18.285714q0-20-6.857143-38.571429t-21.142857-35.714286-26.285714-28.571429-30.857143-28q-5.142857-4.571429-8-6.857143-46.285714-41.142857-82.857143-64-12.571429-8-38.857143-21.714286-1.714286-0.571429-12.857143-6t-20.571429-10.571429-20.285714-11.428571-17.428571-12.285714-6.571429-10.571429q0-40.571429 17.428571-66t55.714286-25.428571q24.571429 0 48.285714 8.571429t38.857143 18.857143 31.428571 18.857143 27.714286 8.571429l0-329.142857q0-28.571429 22-50.857143t51.142857-22.285714q29.714286 0 51.428571 21.714286t21.714286 51.428571l0 189.142857q26.285714-20 58.857143-20 39.428571 0 68 30.285714 18.285714-10.285714 39.428571-10.285714t42 10 30 27.142857q13.714286-2.285714 32-2.285714 48.571429 0 72 27.714286t23.428571 77.428571zm-73.142857 438.857143q0 14.857143-10.857143 25.714286t-25.714286 10.857143-25.714286-10.857143-10.857143-25.714286 10.857143-25.714286 25.714286-10.857143 25.714286 10.857143 10.857143 25.714286zm146.285714-436.571429q0-81.142857-44.285714-131.428571t-124.285714-49.714286l-2.857143 0.571429q-43.428571-34.857143-101.714286-34.857143-12.571429 0-24.571429 1.714286-30.857143-17.142857-68-21.142857l0-96.571429q0-60-43.428571-103.142857t-103.428571-43.142857q-58.857143 0-102.285714 43.428571t-43.428571 102.857143l0 213.714286q-30.857143-12.571429-73.142857-12.571429-69.142857 0-107.714286 46.571429t-38.571429 118q0 21.714286 10 39.714286t28.285714 31.428571 36 23.142857 41.142857 21.142857 35.428571 18.857143q31.428571 20 73.714286 57.142857 1.714286 1.142857 9.714286 8t12.285714 10.857143 12.285714 11.714286 12.857143 13.714286 10.285714 12.857143 8 13.428571 2.571429 12.285714l0 164.571429q0 30.285714 21.428571 51.714286t51.714286 21.428571l365.714286 0q30.285714 0 51.714286-21.428571t21.428571-51.714286l0-164.571429q0-33.714286 33.714286-127.428571 39.428571-108.571429 39.428571-181.142857z"  horiz-adv-x="1024" />

    
    <glyph glyph-name="handoleft" unicode="&#59217;" d="M786.285714 91.428571l18.285714 0 0 365.714286-18.285714 0q-20 0-38.571429 6.857143t-35.714286 21.142857-28.571429 26.285714-28 30.857143q-1.142857 1.714286-2 2.571429t-2.285714 2.571429-2.571429 2.857143q-41.142857 46.285714-64 82.857143-8 12.571429-21.714286 38.857143-0.571429 1.714286-6 12.857143t-10.571429 20.571429-11.428571 20.285714-12.285714 17.428571-10.571429 6.571429q-40.571429 0-66-17.428571t-25.428571-55.714286q0-24.571429 8.571429-48.285714t18.857143-38.857143 18.857143-31.428571 8.571429-27.714286l-329.142857 0q-28.571429 0-50.857143-22t-22.285714-51.142857q0-29.714286 21.714286-51.428571t51.428571-21.714286l189.142857 0q-8.571429-9.714286-14.285714-27.142857t-5.714286-31.714286q0-39.428571 30.285714-68-10.285714-18.285714-10.285714-39.428571t10-42 27.142857-30q-2.285714-13.714286-2.285714-32 0-48.571429 27.714286-72t77.428571-23.428571q48 0 104.571429 18.285714t110.857143 36.571429 95.428571 18.285714zm164.571429 36.571429q0 14.857143-10.857143 25.714286t-25.714286 10.857143-25.714286-10.857143-10.857143-25.714286 10.857143-25.714286 25.714286-10.857143 25.714286 10.857143 10.857143 25.714286zm73.142857 329.142857l0-365.714286q0-30.285714-21.428571-51.714286t-51.714286-21.428571l-164.571429 0q-33.714286 0-127.428571-33.714286-108.571429-39.428571-181.142857-39.428571-81.142857 0-131.428571 44.285714t-49.714286 124.285714l0.571429 2.857143q-34.857143 43.428571-34.857143 101.714286 0 12.571429 1.714286 24.571429-18.857143 32.571429-21.142857 68l-96.571429 0q-60 0-103.142857 43.428571t-43.142857 103.428571q0 58.857143 43.428571 102.285714t102.857143 43.428571l213.714286 0q-12.571429 34.285714-12.571429 73.142857 0 69.714286 46.571429 108t118 38.285714q21.714286 0 39.714286-10t31.428571-28.285714 23.142857-36 21.142857-41.142857 18.857143-35.428571q20-31.428571 57.142857-73.714286 1.142857-1.714286 8-9.714286t10.857143-12.285714 11.714286-12.285714 13.714286-12.857143 12.857143-10.285714 13.428571-8 12.285714-2.571429l164.571429 0q30.285714 0 51.714286-21.428571t21.428571-51.714286z"  horiz-adv-x="1025" />

    
    <glyph glyph-name="handoright" unicode="&#59218;" d="M146.285714 128q0 14.857143-10.857143 25.714286t-25.714286 10.857143-25.714286-10.857143-10.857143-25.714286 10.857143-25.714286 25.714286-10.857143 25.714286 10.857143 10.857143 25.714286zm804.571429 329.142857q0 29.142857-22.285714 51.142857t-50.857143 22l-329.142857 0q0 11.428571 8.571429 27.714286t18.857143 31.428571 18.857143 38.857143 8.571429 48.285714q0 38.285714-25.428571 55.714286t-66 17.428571q-13.714286 0-51.428571-79.428571-13.714286-25.142857-21.142857-37.142857-22.857143-36.571429-64-82.857143-40.571429-46.285714-57.714286-60.571429-39.428571-32.571429-80-32.571429l-18.285714 0 0-365.714286 18.285714 0q41.142857 0 95.428571-18.285714t110.571429-36.571429 102.571429-18.285714q108 0 108 95.428571 0 14.857143-2.857143 32 17.142857 9.142857 27.142857 30t10 42-10.285714 39.428571q30.285714 28.571429 30.285714 68 0 14.285714-5.714286 31.714286t-14.285714 27.142857l189.142857 0q29.714286 0 51.428571 21.714286t21.714286 51.428571zm73.142857 0.571429q0-60-43.142857-103.428571t-103.142857-43.428571l-96.571429 0q-2.285714-35.428571-21.142857-68 1.714286-12 1.714286-24.571429 0-57.714286-34.285714-101.714286 0.571429-79.428571-48.571429-125.428571t-129.714286-46q-76 0-184 39.428571-93.714286 33.714286-127.428571 33.714286l-164.571429 0q-30.285714 0-51.714286 21.428571t-21.428571 51.714286l0 365.714286q0 30.285714 21.428571 51.714286t51.714286 21.428571l164.571429 0q5.714286 0 12.285714 2.571429t13.428571 8 12.857143 10.285714 13.714286 12.857143 11.714286 12.285714 10.857143 12.285714 8 9.714286q37.142857 42.285714 57.142857 73.714286 7.428571 12 18.857143 35.428571t21.142857 41.142857 23.142857 36 31.428571 28.285714 39.714286 10q71.428571 0 118-38.285714t46.571429-108q0-38.857143-12.571429-73.142857l213.714286 0q59.428571 0 102.857143-43.428571t43.428571-102.285714z"  horiz-adv-x="1024" />

    
    <glyph glyph-name="handoup" unicode="&#59251;" d="M804.571429-18.285714q0 14.857143-10.857143 25.714286t-25.714286 10.857143-25.714286-10.857143-10.857143-25.714286 10.857143-25.714286 25.714286-10.857143 25.714286 10.857143 10.857143 25.714286zm73.142857 436.571429q0 108-95.428571 108-14.857143 0-32-2.857143-9.142857 17.142857-30 27.142857t-42 10-39.428571-10.285714q-28.571429 30.285714-68 30.285714-14.285714 0-31.714286-5.714286t-27.142857-14.285714l0 189.142857q0 29.714286-21.714286 51.428571t-51.428571 21.714286q-29.142857 0-51.142857-22.285714t-22-50.857143l0-329.142857q-11.428571 0-27.714286 8.571429t-31.428571 18.857143-38.857143 18.857143-48.285714 8.571429q-38.285714 0-55.714286-25.428571t-17.428571-66q0-13.714286 79.428571-51.428571 25.142857-13.714286 37.142857-21.142857 36.571429-22.857143 82.857143-64 46.285714-40.571429 60.571429-57.714286 32.571429-39.428571 32.571429-80l0-18.285714 365.714286 0 0 18.285714q0 41.142857 18.285714 95.428571t36.571429 110.571429 18.285714 102.571429zm73.142857 2.857143q0-76-39.428571-184-33.714286-93.714286-33.714286-127.428571l0-164.571429q0-30.285714-21.428571-51.714286t-51.714286-21.428571l-365.714286 0q-30.285714 0-51.714286 21.428571t-21.428571 51.714286l0 164.571429q0 5.714286-2.571429 12.285714t-8 13.428571-10.285714 12.857143-12.857143 13.714286-12.285714 11.714286-12.285714 10.857143-9.714286 8q-42.285714 37.142857-73.714286 57.142857-12 7.428571-35.428571 18.857143t-41.142857 21.142857-36 23.142857-28.285714 31.428571-10 39.714286q0 71.428571 38.285714 118t108 46.571429q38.857143 0 73.142857-12.571429l0 213.714286q0 59.428571 43.428571 102.857143t102.285714 43.428571q60 0 103.428571-43.142857t43.428571-103.142857l0-96.571429q35.428571-2.285714 68-21.142857 12 1.714286 24.571429 1.714286 57.714286 0 101.714286-34.285714 79.428571 0.571429 125.428571-48.571429t46-129.714286z"  horiz-adv-x="1024" />

    
    <glyph glyph-name="maozi" unicode="&#59017;" d="M527.947 33.31c-287.485 0-506.157 67.721-508.559 157.433-1.311 47.186 43.327 71.58 93.935 80.39 16.238 198.793 120.003 407.052 297.751 443.606 15.947 6.845 69.978 28.763 115.853 29.929 0.073 0 0.073 0 0.146 0 48.497 0 95.318-21.991 111.265-30.365 243.722-53.74 294.402-329.573 304.961-445.791 40.268-9.248 86.362-28.836 80.609-79.153 0.073-31.967-84.105-156.048-495.962-156.048zM97.011 190.887c30.583-27.817 163.767-84.759 430.863-84.759 285.3 0 386.153 61.531 415.644 86.944-7.937 2.767-20.607 6.19-40.341 9.393-16.821 2.694-29.855 20.826-30.802 37.938-4.515 77.478-32.841 320.763-210.079 390.813l0.946-217.434c0 0 0-0.073 0-0.073 0-20.025-16.238-36.409-36.263-36.409-0.073 0-0.073 0-0.146 0-20.025 0-36.336 16.238-36.409 36.263l-1.020 243.429c-16.53 7.136-39.54 14.928-58.91 14.928-22.646-0.582-51.264-9.102-71.726-16.603l2.112-239.134c0-0.073 0-0.219 0-0.364 0-19.952-16.093-36.191-36.117-36.409-0.073 0-0.219 0-0.291 0-19.952 0-36.263 16.093-36.409 36.117l-1.966 215.177c-124.372-54.832-196.244-234.983-201.778-393.653-0.655-18.86-15.655-34.079-34.515-35.025-18.932-1.020-41.215-5.899-52.793-11.141z"  horiz-adv-x="1024" />

    
    <glyph glyph-name="18window" unicode="&#58922;" d="M501.5552 647.76192l0-176.66048c0-37.1712-30.14656-67.29728-67.29728-67.29728l-176.68096 0c-37.15072 0-67.29728 30.12608-67.29728 67.29728l0 176.66048c0 37.1712 30.14656 67.31776 67.29728 67.31776l176.68096 0C471.42912 715.07968 501.5552 684.93312 501.5552 647.76192zM798.8224 715.07968l-176.68096 0c-37.15072 0-67.29728-30.14656-67.29728-67.31776l0-176.66048c0-37.1712 30.14656-67.29728 67.29728-67.29728l176.68096 0c37.15072 0 67.29728 30.12608 67.29728 67.29728l0 176.66048C866.11968 684.93312 835.97312 715.07968 798.8224 715.07968zM434.25792 350.5152l-176.68096 0c-37.15072 0-67.29728-30.12608-67.29728-67.29728l0-176.68096c0-37.15072 30.14656-67.29728 67.29728-67.29728l176.68096 0c37.15072 0 67.29728 30.14656 67.29728 67.29728l0 176.68096C501.5552 320.38912 471.42912 350.5152 434.25792 350.5152zM798.8224 350.5152l-176.68096 0c-37.15072 0-67.29728-30.12608-67.29728-67.29728l0-176.68096c0-37.15072 30.14656-67.29728 67.29728-67.29728l176.68096 0c37.15072 0 67.29728 30.14656 67.29728 67.29728l0 176.68096C866.11968 320.38912 835.97312 350.5152 798.8224 350.5152z"  horiz-adv-x="1024" />

    
    <glyph glyph-name="tuichu1" unicode="&#58943;" d="M786.258731 733.308411c31.228726-22.162322 58.427939-46.843089 82.605017-75.04968 24.177078-27.702902 44.828333-57.92425 61.953763-90.160354 17.12543-32.236104 30.221348-66.486965 39.287752-102.752582 9.066404-36.265617 13.599606-73.034924 13.599606-109.80423 0-63.968519-12.088539-124.411215-36.769306-180.320708-24.680767-55.909493-57.420561-105.271028-99.226758-146.573537-41.806198-41.806198-90.664043-74.545991-146.573537-99.226758-55.909493-24.680767-116.352189-36.769306-180.320708-36.769306-63.46483 0-122.900148 12.088539-179.31333 36.769306-55.909493 24.680767-105.271028 57.420561-147.077226 99.226758-41.806198 41.806198-75.04968 90.664043-99.226758 146.573537-24.177078 55.909493-36.265617 116.352189-36.265617 180.320708 0 36.265617 4.533202 72.531235 13.095917 107.285785 8.562715 35.258239 20.651254 68.501722 36.769306 100.234137 15.614363 31.732415 35.258239 61.450074 58.931628 88.649287 23.1697 27.702902 49.361535 52.383669 78.575504 74.545991 15.110674 11.081161 31.732415 15.110674 48.857846 12.592228 17.62912-2.518446 31.732415-11.58485 42.813576-25.688146 11.081161-14.606985 15.110674-30.725037 12.592228-48.354156-2.518446-18.132809-11.58485-32.236104-25.688146-43.317265-43.317265-31.732415-76.560748-70.516478-99.730448-116.855878-23.1697-46.3394-34.75455-95.700935-34.75455-148.588293 0-45.332022 8.562715-88.145598 25.688146-128.440728 17.12543-40.29513 40.798819-75.553369 71.020167-105.271028s64.975898-53.894737 105.271028-71.523856c40.29513-17.62912 83.108706-26.191835 128.440728-26.191835 45.332022 0 88.145598 8.562715 128.440728 26.191835 40.29513 17.62912 75.553369 41.302509 105.271028 71.523856s53.894737 64.975898 71.523856 105.271028c17.62912 40.29513 26.191835 83.108706 26.191835 128.440728 0 53.894737-12.592228 104.767339-37.272996 152.617806-24.680767 47.850467-59.435317 87.138219-104.26365 118.366945-15.110674 10.577472-24.177078 24.680767-27.199213 42.309887-3.022135 18.132809 0.503689 34.250861 11.081161 49.361535 10.577472 14.606985 24.680767 23.1697 42.309887 26.191835C754.526316 747.411707 771.148057 743.382194 786.258731 733.308411L786.258731 733.308411zM520.81456 352.01574c-18.132809 0-33.243483 6.547959-45.835711 19.140187-12.592228 12.592228-19.140187 28.206591-19.140187 45.835711l0 392.877521c0 18.132809 6.547959 33.243483 19.140187 46.3394 12.592228 13.095917 28.206591 19.643876 45.835711 19.643876 18.636498 0 34.250861-6.547959 46.843089-19.643876 12.592228-13.095917 19.140187-28.71028 19.140187-46.3394l0-392.877521c0-18.132809-6.547959-33.243483-19.140187-45.835711C555.065421 358.563699 539.451058 352.01574 520.81456 352.01574L520.81456 352.01574zM520.81456 352.01574"  horiz-adv-x="1024" />

    
    <glyph glyph-name="jishuguanli" unicode="&#58930;" d="M934.193625 79.993125 757.598604 256.894114l23.559579 23.600511-23.548322 23.588231-70.611198-70.745251L569.234539 351.282854l141.486408 141.77805c18.84623-6.734378 38.554084-10.119475 58.764382-10.119475 46.630017 0 90.479711 18.176988 123.470079 51.188846 50.89618 51.022047 65.334008 126.842897 36.779671 193.146998l-9.704013 22.589484-75.884294-76.036767-61.10366-0.827855 0.813528 58.383712 77.362972 77.483722-22.487154 9.759271c-22.062482 9.572006-45.493124 14.416338-69.62473 14.416338-46.645366 0-90.479711-18.189268-123.423007-51.217499-48.292889-48.344055-63.805188-118.961392-40.959877-182.719508L463.285508 457.415057 263.113513 657.922696l23.560602 23.584138-129.458467 129.704061-70.694085-70.728878L216.043475 610.750327l23.528879 23.571858 200.167902-200.493314L298.28557 292.1245c-18.893302 6.766101-38.684044 10.191106-58.956763 10.191106-46.63411 0-90.483804-18.189268-123.44245-51.217499C64.87966 200.017732 50.473555 124.112971 79.172177 57.719842l9.735735-22.50148 77.346599 77.467349 58.260915 0.795109-0.833995-61.213153-75.880201-76.024487 22.538319-9.731642c21.995967-9.484002 45.328371-14.299681 69.360717-14.299681 46.645366 0 90.468454 18.176988 123.426077 51.192939 48.206932 48.316425 63.73458 118.825292 41.034579 182.484148l141.526317 141.7934 117.764124-117.9299-70.663386-70.789253 23.545252-23.588231 23.545252 23.588231 176.571485-176.904059c15.728216-15.750729 36.654828-24.439622 58.877969-24.439622 22.228257 0 43.138496 8.688893 58.878992 24.439622C966.66006-5.431453 966.644711 47.484733 934.193625 79.993125zM216.043475 657.922696l-82.403778 82.559321 23.560602 23.556509 82.384335-82.530668L216.043475 657.922696zM364.933503 193.758168l4.470825-10.399861c23.089881-53.694923 11.379165-115.084085-29.820166-156.369374-26.66736-26.725688-62.125943-41.429575-99.881848-41.429575-10.844999 0-21.50785 1.199315-31.900547 3.613294l48.988738 49.082882 1.477654 109.037369-105.996103-1.446955-50.565652-50.65775c-11.119245 47.249117 2.535753 97.079012 37.72009 132.321678 26.682709 26.725688 62.160735 41.445948 99.901291 41.445948 19.558451 0 38.514175-3.920286 56.385195-11.670807l10.392698-4.496407 337.88752 338.482061-4.487198 10.411117c-23.23826 53.766554-11.559267 115.211998 29.718859 156.557662 26.66736 26.725688 62.146409 41.444924 99.881848 41.444924 10.94733 0 21.688975-1.243317 32.17991-3.656273l-50.534953-50.630121-1.466398-106.203834 108.84294 1.474584 49.040926 49.122791c10.990309-47.15702-2.686179-96.903004-37.754882-132.074038-26.699082-26.709315-62.178131-41.429575-99.92892-41.429575-19.4991 0-38.403658 3.904936-56.243979 11.598152l-10.372232 4.464685L364.933503 193.758168zM910.660652-14.340357c-9.449209-9.472745-21.995967-14.663978-35.329646-14.663978-13.349029 0-25.880437 5.191232-35.332716 14.663978L663.421688 162.552445l70.631664 70.756507L910.644279 56.404893C930.123936 36.896584 930.123936 5.167952 910.660652-14.340357z"  horiz-adv-x="1024" />

    
    <glyph glyph-name="jiaoyin" unicode="&#58934;" d="M168.763077-117.76C281.993846-123.470769 338.510769-2.166154 348.356923 79.163077L27.175385 118.547692C12.603077 19.692308 40.763077-111.261538 168.763077-117.76L168.763077-117.76ZM456.861538 553.944615C444.390351 604.307419 445.751072 657.103401 460.8 706.756923 429.562919 735.14545 388.357628 750.013339 346.190769 748.110769 133.316923 744.763077 63.015385 575.606154 46.867692 474.978462 35.446154 405.070769 42.141538 283.963077 41.353846 184.516923L366.670769 145.132308C392.073846 229.021538 448.590769 302.670769 496.246154 364.307692 497.624615 366.08 498.806154 368.049231 500.184615 370.018462 492.991364 431.24942 478.988847 491.486655 458.436923 549.612308L456.861538 553.944615ZM567.138462 298.141538 892.061538 258.756923C925.144615 350.326154 970.830769 456.861538 982.843077 524.012308 1002.535385 624.246154 994.067692 807.187692 794.978462 883.2 774.806282 891.320537 753.311907 895.659464 731.569231 896 594.707692 896 515.938462 716.012308 517.513846 612.036923 523.435622 592.762466 527.588187 572.988351 529.92 552.96 553.944615 474.781538 578.953846 385.575385 567.138462 298.141538L567.138462 298.141538ZM657.723077 12.012308C672.819308 7.202517 688.550628 4.680196 704.393846 4.529231 798.72 4.529231 854.646154 101.415385 871.778462 186.092308L872.96 191.803077 551.581538 231.187692C541.735385 150.252308 561.427692 41.550769 657.723077 12.012308L657.723077 12.012308Z"  horiz-adv-x="1024" />

    
    <glyph glyph-name="paidui" unicode="&#58884;" d="M708.032 411.968H540.032V608a28.032 28.032 0 1 1-56 0V384c0-15.488 12.544-28.032 28.032-28.032h196.032a27.968 27.968 0 0 1-0.064 56zM120 691.968c0 46.4 37.568 84.032 84.032 84.032h56V832h-56A139.968 139.968 0 0 1 64 691.968v-56h56v56zM820.032 832h-56v-56h56c46.4 0 84.032-37.632 84.032-84.032v-56H960v56A139.968 139.968 0 0 1 820.032 832z m83.968-448a392 392 0 1 1-579.712-344.128L260.032-55.68l56-8.32 75.136 75.2a390.912 390.912 0 0 1 241.728 0L708.032-64h84.032l-92.224 103.872A391.872 391.872 0 0 1 904 384zM512 48a336 336 0 1 0 0.064 672.064A336 336 0 0 0 512 48z"  horiz-adv-x="1024" />

    
    <glyph glyph-name="xinfeng" unicode="&#58880;" d="M640.166 373.365l317.546 312.085c-7.238 15.123-22.68 25.568-40.565 25.568h-809.084c-17.885 0-33.327-10.446-40.565-25.568l317.546-312.085c70.448-44.414 184.673-44.414 255.123 0zM63.113 623.449v-500.838l263.946 251.060-263.946 249.778zM698.149 373.671l263.946-251.060v500.838l-263.946-249.778zM656.803 334.543c-79.639-50.541-208.76-50.541-288.398 0l-11.891 11.253-288.32-284.817c7.499-14.376 22.532-24.195 39.868-24.195h809.084c17.336 0 32.369 9.82 39.868 24.195l-288.32 284.818-11.891-11.254z"  horiz-adv-x="1025" />

    
    <glyph glyph-name="huiyi" unicode="&#58881;" d="M867.145 115.438l-0.146 6.363c-25.947 147.328-147.749 254.281-289.536 254.281h-20.187c37.321 9.691 72.357 29.221 100.389 57.198l1.957 2.030c76.398 76.745 83.438 199.040 16.384 284.526-40.283 50.597-98.432 81.189-160.146 84.407l0 0.329-10.441-0.037-5.961 0.037-4.389-0.11v-0.201c-64.914-3.255-124.361-35.566-163.456-89.070-60.709-81.92-54.473-199.826 13.879-273.554l2.505-3.95c29.184-30.683 65.042-51.511 103.899-61.605h-17.426c-145.097 0-267.758-109.769-291.621-261.065-5.906-37.778 4.279-76.178 27.867-105.417 23.735-29.312 58.313-46.171 94.866-46.171h478.702c36.901 0 71.662 17.152 95.47 47.049 23.845 29.897 33.81 68.443 27.392 104.96zM504.942 446.427c-39.57 0-77.897 16.987-105.179 46.683-44.8 47.086-49.152 120.43-10.478 174.336 27.483 37.778 69.833 59.538 116.187 59.703 44.507-0.165 85.778-20.864 113.39-56.814 42.021-53.193 37.321-131.95-10.752-179.401l-1.829-1.902c-28.087-27.465-64.073-42.606-101.339-42.606zM434.487 298.661h142.007c107.154 0 198.51-80.421 217.326-191.579l0.878-3.566c2.706-15.945-1.353-32.018-11.264-44.233-8.795-11.739-23.040-18.487-39.095-18.487l-477.714 0c-16.018 0-28.928 6.382-38.583 19.2-9.307 10.569-13.568 26.203-11.721 42.697 16.823 113.573 108.599 195.968 218.167 195.968zM258.999 419.035c-55.424 2.743-98.834 50.56-98.834 108.855 0 48.238 30.793 91.337 74.898 104.795 8.082 2.469 14.738 8.064 18.761 15.799 4.059 7.735 5.010 16.658 2.67 25.070-4.517 16.53-23.095 27.41-38.894 22.601-70.839-21.614-120.302-90.807-120.302-168.247 0-51.163 21.175-99.621 58.112-132.919l2.103-1.902-2.469-1.262c-84.352-43.52-136.759-132.187-136.759-231.351 0-18.213 14.117-33.042 31.47-33.042 17.335 0 31.433 14.83 31.433 33.042 0 103.936 77.385 188.197 176.091 191.835 5.778 0.128 11.154 2.011 15.598 5.303 9.856 6.309 15.561 15.835 16.073 26.825 0.384 8.832-2.505 17.262-8.155 23.808-5.65 6.546-13.367 10.35-21.797 10.789zM868.974 391.826l-2.469 1.262 2.066 1.902c36.974 33.298 58.167 81.737 58.167 132.919 0 77.44-49.481 146.633-120.192 168.21-15.835 4.974-34.487-5.943-39.022-22.51-2.341-8.503-1.408-17.445 2.651-25.070 4.041-7.771 10.697-13.385 18.798-15.854 44.050-13.477 74.862-56.576 74.862-104.814 0-58.295-43.392-106.112-98.834-108.855-8.393-0.439-16.11-4.242-21.76-10.752-5.632-6.491-8.521-14.958-8.155-23.845 0.512-10.642 6.272-20.498 15.104-26.13 5.413-3.913 10.77-5.833 16.329-5.961 98.871-3.639 176.347-87.936 176.347-191.835 0-18.213 14.098-33.042 31.433-33.042 17.353 0 31.451 14.83 31.451 33.042-0.037 99.163-52.389 187.813-136.777 231.333z"  horiz-adv-x="1024" />

    
    <glyph glyph-name="leidian" unicode="&#58942;" d="M205.679775 488.33262h-79.035493c-51.531718 0-93.472451 43.224338-93.472451 96.342535 0 53.161465 41.940732 96.385803 93.458028 96.385803 3.446986 0 7.196845-0.274028 11.826479-0.865352l15.215775-1.93262 1.528788 15.634028C164.589972 789.374197 241.952451 861.385915 335.165296 861.385915c40.469634 0 78.67493-14.16293 109.495887-38.464901 6.663211 7.730479 13.643718 15.042704 21.013634 21.850141-36.633239 29.825803-82.496901 47.334761-130.523944 47.33476-104.044169 0-190.564958-75.487549-207.785465-180.324957h-0.721126c-68.031099 0-123.399211-57.026704-123.399212-127.091381 0-70.064676 55.368113-127.076958 123.384789-127.076957h79.75662a174.656901 174.656901 0 0 0-1.197071 19.369465c0 3.821972 0.245183 7.586254 0.490367 11.350535z m737.597295 223.116619c-13.268732 0-26.50862-1.442254-39.460056-4.32676-41.392676 98.722254-137.965972 164.561127-242.457239 164.561127-130.408563 0-238.837183-94.611831-260.442141-226.001127h-0.894197c-85.280451 0-154.652845-71.449239-154.652845-159.282479 0-87.833239 69.372394-159.253634 154.652845-159.253634h543.253633c102.832676 0 186.512225 86.203493 186.512226 192.151437 0 105.962366-83.679549 192.165859-186.512226 192.165859z m148.999212-192.151436c0-84.732394-66.819606-153.65769-148.999212-153.65769H400.023437c-64.598535 0-117.139831 54.171042-117.139831 120.759887 0 66.603268 52.541296 120.803155 117.139831 120.803155 4.297915 0 9.014085-0.360563 14.797521-1.08169l19.066591-2.451831 1.918197 19.614648c11.768789 119.663775 108.745915 209.92 225.554029 209.92 95.563718 0 181.320113-62.507268 213.424676-155.53262l6.057464-17.566648 17.307043 5.668056c14.667718 4.759437 29.854648 7.182423 45.128112 7.182423 82.179606 0 148.999211-68.939718 148.999212-153.65769zM402.633915 221.169577l47.392451-88.265915c10.989972-20.48 41.681127-2.206648 30.691155 18.31662-15.792676 29.407549-31.585352 58.843944-47.406873 88.265915-10.989972 20.451155-41.681127 2.16338-30.676733-18.31662z m540.008564 0l47.406873-88.265915c10.989972-20.48 41.695549-2.206648 30.691155 18.31662-15.807099 29.407549-31.585352 58.843944-47.392451 88.265915-11.004394 20.451155-41.709972 2.16338-30.705577-18.31662z m-39.661972-96.919436c15.792676-29.421972 31.585352-58.843944 47.406873-88.265916 10.989972-20.48 41.681127-2.192225 30.676733 18.302198l-47.392451 88.265915c-10.989972 20.48-41.681127 2.192225-30.691155-18.302197zM133.985352 338.56901400000004l47.406873-88.265915c10.989972-20.48 41.695549-2.192225 30.691155 18.316619l-47.39245 88.265916c-10.989972 20.48-41.709972 2.192225-30.705578-18.31662z m144.715718-104.260507l47.392451-88.265915c10.989972-20.48 41.681127-2.192225 30.691155 18.302197L309.36338 252.61070400000006c-10.989972 20.48-41.681127 2.177803-30.676732-18.316619z m-41.392676-117.399437l47.392451-88.280338c10.989972-20.48 41.709972-2.192225 30.691155 18.31662l-47.392451 88.265916c-11.004394 20.48-41.695549 2.192225-30.691155-18.31662z m165.339944-20.249239l47.392451-88.265916c10.989972-20.48 41.681127-2.206648 30.691155 18.31662-15.792676 29.407549-31.585352 58.843944-47.406874 88.265916-10.989972 20.48-41.681127 2.177803-30.676732-18.31662z m342.939042 232.27493l-3.778704-1.788395h4.615211l-0.836507 1.788395z m74.939493-231.106705h-57.257465c-7.586254 0-14.624451-3.836394-18.835831-10.29769a23.508732 23.508732 0 0 1-2.062422-21.720338l53.752789-131.172958-218.861972 236.818029h54.791211c8.264113 0 15.864789 4.586366 19.845409 11.970704a23.508732 23.508732 0 0 1-0.749972 23.537577l-54.113352 86.80924h-33.705465l58.166084-93.313803h-57.63245c-9.057352 0-17.23493-5.480563-20.797296-13.946592a23.451042 23.451042 0 0 1 4.312338-25.008676l249.870422-270.364845c4.470986-4.845972 10.384225-7.355493 16.398423-7.355493 4.240225 0 8.538141 1.240338 12.40338 3.80755a23.076056 23.076056 0 0 1 8.566986 28.311436l-62.63707 152.907718h57.661295c7.788169 0 14.956169 4.03831 19.124282 10.744789a23.37893 23.37893 0 0 1 1.370141 22.196282l-88.366873 192.021634H730.357183l90.140845-195.944564z"  horiz-adv-x="1139" />

    
    <glyph glyph-name="shandian" unicode="&#59328;" d="M552.86784 538.88512h232.34048L230.18496-128l185.0112 469.58592H208.67584L415.19616 896h400.128l-262.45632-357.11488z"  horiz-adv-x="1024" />

    
    <glyph glyph-name="daochu" unicode="&#59252;" d="M341.333333 42.666667c0-23.552 19.328-42.666667 42.538667-42.666667h256.256c23.466667 0 42.538667 18.944 42.538667 42.666667v85.12c0 47.232 38.144 85.546667 85.546666 85.546666H853.333333a42.666667 42.666667 0 0 1 42.666667 42.624V682.538667A85.290667 85.290667 0 0 1 810.88 768H213.12A85.205333 85.205333 0 0 1 128 682.538667V256c0-23.552 18.944-42.624 42.666667-42.624h85.12C303.018667 213.333333 341.333333 175.189333 341.333333 127.786667V42.666667z m106.837334 339.626666v-169.429333c0-35.072 28.586667-63.530667 63.829333-63.530667 35.285333 0 63.829333 28.458667 63.829333 63.530667v169.386667h148.906667c23.253333 0 29.098667 13.525333 12.373333 30.165333L542.293333 606.293333a43.136 43.136 0 0 1-60.586666 0l-194.773334-193.834666c-16.554667-16.469333-11.178667-30.122667 12.373334-30.122667h148.864zM0 768.384A127.701333 127.701333 0 0 0 127.616 896H896.426667A127.701333 127.701333 0 0 0 1024 768.384V-0.426667A127.701333 127.701333 0 0 0 896.384-128H127.573333A127.701333 127.701333 0 0 0 0-0.384V768.426667z"  horiz-adv-x="1024" />

    
    <glyph glyph-name="mubiao" unicode="&#58925;" d="M934.468267 419.054933l-16.725334 4.096c1.194667-12.9024 1.979733-25.941333 1.979734-39.150933 0-227.089067-183.9104-411.818667-410.0096-411.818667C283.648-27.818667 99.7376 156.910933 99.7376 384c0 227.1232 183.9104 411.8528 409.975467 411.8528 68.7104 0 133.4272-17.271467 190.327466-47.377067l1.8432 13.380267 79.872 54.613333A504.661333 504.661333 0 0 1 509.678933 896C228.215467 896 0 666.794667 0 384s228.215467-512 509.713067-512c281.531733 0 509.7472 229.205333 509.7472 512 0 29.969067-3.072 59.1872-7.9872 87.722667l-77.0048-52.667734zM509.713067 573.269333c11.741867 0 23.210667-1.262933 34.372266-3.310933l101.888 69.085867a285.969067 285.969067 0 0 1-136.260266 34.372266c-159.095467 0-288.085333-129.536-288.085334-289.416533 0-159.8464 128.989867-289.3824 288.085334-289.3824 159.1296 0 288.1536 129.536 288.1536 289.3824a292.864 292.864 0 0 1-1.3312 26.112l-103.799467-70.314667c-19.933867-83.0464-94.3104-144.9984-183.022933-144.9984-103.867733 0-188.381867 84.855467-188.381867 189.201067 0 104.379733 84.514133 189.269333 188.416 189.269333z m238.592 159.744l-12.6976-93.696-272.725334-184.797866a87.313067 87.313067 0 0 1-22.801066-120.9344 86.4256 86.4256 0 0 1 120.4224-22.9376l272.725333 184.763733 91.477333-22.4256 186.606934 127.658667a34.747733 34.747733 0 0 1-12.731734 62.702933l-101.4784 20.206933a34.679467 34.679467 0 0 0-27.2384 40.174934l18.397867 102.229333a34.7136 34.7136 0 0 1-15.189333 35.2256 34.338133 34.338133 0 0 1-38.229334-0.443733l-186.538666-127.6928z"  horiz-adv-x="1126" />

    
    <glyph glyph-name="wenjianjia" unicode="&#59036;" d="M861.04-7.895c0-30.91-25.074-55.877-55.924-55.877H106.413l97.848 461.131c0 30.88 24.92 55.907 55.77 55.907H902.96c30.856 0 55.829-25.027 55.829-55.907L861.04-7.895zM218.163 495.208h628.87v54.891c0 30.88-25.076 55.906-55.877 55.906H455.788v50.659c0 30.827-25.027 55.878-55.878 55.878H120.367c-30.855 0-55.877-25.05-55.877-55.878v-664.559l97.747 447.176c0 30.881 25.074 55.927 55.925 55.927z m0 0"  horiz-adv-x="1024" />

    
    <glyph glyph-name="yintian" unicode="&#58941;" d="M1231.794717 350.768302c-16.306717 0-32.574792-1.79683-48.495094-5.274566-50.852226 119.788679-169.520302 199.68-297.945359 199.68-160.26566 0-293.520906-114.803925-320.028981-274.238793h-1.120604c-104.795774 0-190.038943-86.711547-190.038943-193.265509s85.24317-193.246189 190.038943-193.246189h667.590038c126.377057 0 229.202113 104.602566 229.202113 233.162868s-102.825057 233.162868-229.202113 233.162868z m183.083472-233.182189c0-102.825057-82.132528-186.445283-183.083472-186.445283H564.204679c-79.36966 0-143.939623 65.709887-143.939622 146.528604 0 80.799396 64.569962 146.567245 143.939622 146.567245 5.293887 0 11.070792-0.425057 18.200151-1.313811l23.436076-2.956076 2.337811 23.78385c14.471245 145.214792 133.64166 254.72483 277.175547 254.72483 117.412226 0 222.826264-75.833962 262.259925-188.725132l7.457811-21.291472 21.25283 6.839547c18.026264 5.796226 36.690113 8.732981 55.469887 8.732981 100.950943 0 183.083472-83.620226 183.083472-186.445283zM297.21117 580.35683a22.682566 22.682566 0 0 1 32.149736-1.429736c9.216 8.539774 9.853585 23.107623 1.410415 32.400906L194.830491 760.947925a22.663245 22.663245 0 0 1-32.149736 1.410415 23.107623 23.107623 0 0 1-1.410415-32.381585l135.94083-149.600604M286.932528 205.031849l-145.292075-140.423245a23.088302 23.088302 0 0 1-0.676227-32.400906 22.701887 22.701887 0 0 1 32.188378-0.676226l145.292075 140.403924a23.146264 23.146264 0 0 1 0.656906 32.420227 22.701887 22.701887 0 0 1-32.169057 0.676226M523.76634 646.279245a22.875774 22.875774 0 0 1 24.131622 21.426717l12.635774 202.442868a22.914415 22.914415 0 0 1-21.25283 24.32483 22.875774 22.875774 0 0 1-24.150944-21.446037l-12.635773-202.423548a22.914415 22.914415 0 0 1 21.25283-24.32483M249.372981 403.784453a22.933736 22.933736 0 0 1-20.924377 24.633962l-200.704 15.688453A22.875774 22.875774 0 0 1 3.284528 423.027925c-0.966038-12.577811 8.44317-23.667925 20.943698-24.653283l200.723321-15.688453a22.837132 22.837132 0 0 1 24.421434 21.078943M604.488453 567.624453c-25.696604 14.297358-54.639094 27.164981-85.76483 29.483472-115.96317 8.69434-217.358491-79.292377-225.975548-196.144302a212.992 212.992 0 0 1 85.436378-186.657812 179.779623 179.779623 0 0 0 25.522717 34.893283 169.500981 169.500981 0 0 0-68.009057 148.557283c6.897509 92.971472 87.56166 162.989887 179.818264 156.073057 18.084226-1.352453 13.176755 3.303849 29.097057-3.284528l6.163321-2.357132s19.320755 20.016302 53.711698 19.436679M1344.550642 418.506868c0 102.940981-82.306415 186.696453-183.508529 186.696453-13.06083 0-26.083019-1.410415-38.834717-4.211925-40.70883 95.927547-135.728302 159.917887-238.572679 159.917887-128.289811 0-235.01766-91.947472-256.25117-219.599698h-0.908075c-83.890717 0-152.150943-69.419472-152.150944-154.759245 0-25.484075 6.259925-49.40317 17.040906-70.578717 8.617057 4.308528 20.673208 8.617057 36.245736 11.090113a117.180377 117.180377 0 0 0-16.364679 59.488604c0 64.705208 51.70234 117.354264 115.228981 117.354264 4.250566 0 8.887547-0.347774 14.58717-1.062642l18.741132-2.337811 1.893434 19.030943c11.592453 116.252981 106.99834 203.949887 221.937509 203.949887 94.014792 0 178.42717-60.725132 210.016604-151.107623l5.970113-17.060226 17.002264 5.487094a144.577208 144.577208 0 0 0 44.418415 6.994114c80.838038 0 146.605887-66.985057 146.605887-149.291472 0-8.385208-0.811472-16.577208-2.125283-24.595321 10.124075-2.395774 22.817811-6.569057 34.970566-13.621132 2.55034 12.345962 4.057358 25.116981 4.057359 38.216453"  horiz-adv-x="1468" />

    
    <glyph glyph-name="chazhao" unicode="&#58926;" d="M932.3-29.234l-30.556-30.537c-8.42-8.442-22.096-8.442-30.536 0l-66.054 66.042c-57.27-30.836-129.947-22.768-178.305 25.579-59.023 59.043-59.023 154.769 0 213.812 59.065 59.033 154.778 59.033 213.82 0 48.34-48.349 56.415-121.036 25.557-178.296l66.075-66.054c8.42-8.44 8.42-22.117 0-30.546z m-137.446 229.08c-33.742 33.732-88.425 33.732-122.19 0-33.72-33.743-33.72-88.437 0-122.179 33.765-33.731 88.45-33.731 122.19 0 33.72 33.742 33.72 88.436 0 122.18z m-515.15 64.74h277.543c-18.783-26.637-30.6-56.608-35.493-87.53h-242.05c-12.075 0-21.882 9.799-21.882 21.883v43.765c0 12.083 9.807 21.881 21.883 21.881z m393.88 262.587H432.878v87.53h240.704c12.073 0 21.882-9.798 21.882-21.883v-43.765c0-12.083-9.81-21.882-21.882-21.882z m21.881-153.176c0-12.084-9.81-21.882-21.882-21.882H279.705c-12.076 0-21.883 9.798-21.883 21.882v43.765c0 12.085 9.807 21.882 21.883 21.882h393.878c12.073 0 21.882-9.797 21.882-21.882v-43.765z m87.53 372H345.35v-175.06H170.294v-525.176h373.279c9.508-17.8 21.689-34.543 36.691-49.544a209.34 209.34 0 0 1 52.012-37.985H126.53c-24.173 0-43.765 19.596-43.765 43.766V611.872l216.19 221.655H826.76c24.167 0 43.764-19.596 43.764-43.765v-492.289c-25.664 23.827-55.73 40.078-87.528 48.658V745.997z"  horiz-adv-x="1024" />

    
    <glyph glyph-name="setting" unicode="&#58927;" d="M1022.208 245.2992c1.4336-8.8064 1.0752-19.4048-1.1264-31.8464-2.2016-12.4928-5.8368-25.088-10.9568-37.9392-5.12-12.8-11.3664-24.3712-18.688-34.6112-7.3216-10.24-15.36-17.6128-24.2176-22.016a53.1456 53.1456 0 0 0-23.04-6.5536c-6.656 0-13.9264 1.4336-22.016 4.4032a228.6592 228.6592 0 0 1-27.4432 6.0416 128 128 0 0 1-33.536 1.0752 161.4336 161.4336 0 0 1-34.0992-7.168 66.56 66.56 0 0 1-29.1328-18.6368 108.1856 108.1856 0 0 1-30.72-62.6688c-2.9696-23.4496 0.3072-45.824 9.8816-67.072 7.3216-14.6432 6.1952-29.2864-3.328-43.9296a82.176 82.176 0 0 0-20.8896-18.1248c-9.5232-6.2464-19.968-11.9296-31.3344-17.0496-11.3152-5.12-23.2448-9.216-35.6864-12.0832a146.176 146.176 0 0 0-32.9728-4.4032 28.0064 28.0064 0 0 0-18.688 7.68 41.6256 41.6256 0 0 0-12.0832 16.4864h-1.1264a135.8848 135.8848 0 0 1-41.216 58.8288 101.2736 101.2736 0 0 1-67.584 24.7296c-24.9344 0-47.4624-8.2432-67.584-24.7296a133.632 133.632 0 0 1-42.3424-57.7024 37.4272 37.4272 0 0 0-16.4864-19.2512 49.3568 49.3568 0 0 0-24.1664-6.0416c-10.24 0-21.8112 1.8432-34.6112 5.4784-12.8 3.6864-25.6512 8.2432-38.5024 13.7216a184.1152 184.1152 0 0 0-34.6112 19.2512c-10.24 7.3216-17.92 14.6432-23.04 22.016a33.536 33.536 0 0 0-6.0928 18.1248c-0.3584 6.9632 2.4064 16.64 8.2432 29.1328 8.0896 16.8448 11.1616 36.0448 9.3696 57.7024-1.8432 21.6064-11.2128 41.5744-28.0576 59.904a71.4752 71.4752 0 0 1-37.376 21.4016 151.7568 151.7568 0 0 1-41.728 3.84c-15.4112-0.7168-31.1808-3.6352-47.3088-8.7552-10.24-2.9696-20.48-2.2016-30.72 2.2016-8.0896 2.9184-15.616 9.728-22.528 20.3264a227.6864 227.6864 0 0 0-31.3856 74.752c-2.9184 13.5168-3.6352 24.6784-2.2016 33.4848 2.2016 16.128 9.5744 26.368 22.016 30.7712 22.016 8.8064 41.7792 23.296 59.392 43.4176 17.5616 20.1728 26.3168 42.7008 26.3168 67.584 0 25.6512-8.7552 48.0256-26.368 67.072a162.7648 162.7648 0 0 1-59.392 41.7792C16.5376 498.1248 11.0592 503.4496 6.656 511.8464A55.2448 55.2448 0 0 0 0 537.7024c0 9.5232 1.4848 20.1216 4.4032 31.8464 2.9184 11.776 6.7584 23.0912 11.52 34.0992 4.7616 10.9568 10.24 21.0432 16.4864 30.208s13.0048 15.9232 20.3264 20.3264a25.4464 25.4464 0 0 0 17.0496 4.4032c5.5296-0.7168 11.5712-2.2016 18.1248-4.4032 22.016-8.8064 44.9024-11.52 68.7104-8.192a111.616 111.616 0 0 1 63.232 31.2832c8.7552 8.8064 15.1552 19.6096 19.2 32.4096a178.688 178.688 0 0 1 7.68 37.888 176.0256 176.0256 0 0 1 0 34.0992c-1.0752 10.24-1.9968 17.6128-2.7136 22.016a117.6576 117.6576 0 0 0-3.84 15.36 23.808 23.808 0 0 0 1.6384 15.36c4.4032 10.2912 12.288 19.3024 23.6032 26.9824a184.832 184.832 0 0 0 36.864 19.2c13.1584 5.12 26.0096 9.0112 38.4 11.5712 12.4928 2.56 22.3744 3.84 29.696 3.84 9.5744 0 17.0496-3.072 22.528-9.3184 5.5296-6.2464 9.3696-12.6464 11.5712-19.2512 8.0384-19.8144 21.248-37.1712 39.5776-52.224 18.3296-15.0016 39.936-22.528 64.8192-22.528 25.6512 0 48.384 7.168 68.1472 21.4528 19.8144 14.2848 33.7408 32.4096 41.7792 54.3744 2.9184 5.888 7.5264 11.9296 13.7728 18.176C638.7712 892.8768 645.12 896 651.776 896c10.24 0 21.4528-1.4848 33.536-4.4032 12.0832-2.9184 24.0128-6.9632 35.7376-12.0832 11.7248-5.12 22.528-11.7248 32.4096-19.7632 9.8816-8.0896 17.7664-16.896 23.6544-26.4192 3.6352-5.8368 4.7616-12.288 3.2768-19.2a67.5328 67.5328 0 0 0-4.4032-14.848 116.5824 116.5824 0 0 1-8.8064-67.072c3.6864-23.4496 14.336-43.9296 31.8976-61.5424 17.5616-17.5616 39.2192-27.2896 64.8192-29.1328 25.6512-1.8432 49.4592 2.4064 71.4752 12.6464a33.8944 33.8944 0 0 0 21.4016 4.4032 33.4848 33.4848 0 0 0 21.504-9.8816c10.9568-10.24 20.6336-25.856 29.0816-46.7456 8.448-20.8384 14.08-41.9328 17.0496-63.1808 1.4336-12.4416-0.5632-22.1696-6.0416-29.1328a40.96 40.96 0 0 0-17.0496-13.7216 129.024 129.024 0 0 1-58.2656-42.3424 107.008 107.008 0 0 1-24.1664-68.6592c0-24.9344 6.7584-46.7456 20.3264-65.4336s31.3344-32.0512 53.2992-40.0896c5.12-2.9696 9.5232-5.888 13.2096-8.8064a49.408 49.408 0 0 0 16.4864-25.2928zM511.0784 146.432c32.9728 0 64.1536 6.2464 93.44 18.688a234.5984 234.5984 0 0 1 76.3904 51.712c21.6064 21.9136 38.656 47.4112 51.0976 76.3392a232.448 232.448 0 0 1 18.688 92.8768 232.448 232.448 0 0 1-18.688 92.8768 240.64 240.64 0 0 1-51.0976 75.8272 239.0016 239.0016 0 0 1-76.3904 51.1488 236.3392 236.3392 0 0 1-93.44 18.688 232.448 232.448 0 0 1-92.8768-18.688 240.64 240.64 0 0 1-75.776-51.1488 240.64 240.64 0 0 1-51.2-75.776 232.448 232.448 0 0 1-18.6368-92.928c0-32.9728 6.2464-63.9488 18.688-92.8768s29.4912-54.4256 51.0976-76.3904c21.6064-22.016 46.8992-39.2192 75.8272-51.6608a232.448 232.448 0 0 1 92.8768-18.688z"  horiz-adv-x="1024" />

    
    <glyph glyph-name="JGHandle" unicode="&#58928;" d="M634.942-84.639h-412.869c-65.196 0-118.213 53.049-118.213 118.251v685.505c0 65.201 53.019 118.279 118.213 118.279h579.146c65.196 0 118.347-53.078 118.347-118.279v-471.275c0-17.034-13.855-30.859-30.926-30.859-17.003 0-30.794 13.825-30.794 30.859v471.275c0 31.193-25.434 56.566-56.627 56.566h-579.146c-31.195 0-56.493-25.373-56.493-56.566v-685.505c0-31.193 25.299-56.529 56.493-56.529h412.869c17.005 0 30.796-13.827 30.796-30.862s-13.791-30.86-30.796-30.86zM683.008 536.211h-342.72c-17.004 0-30.795 13.825-30.795 30.861 0 17.034 13.789 30.86 30.795 30.86h342.72c17.070 0 30.926-13.825 30.926-30.86s-13.857-30.861-30.926-30.861zM683.008 365.356h-342.72c-17.004 0-30.795 13.821-30.795 30.854 0 17.040 13.789 30.86 30.795 30.86h342.72c17.070 0 30.926-13.82 30.926-30.86 0-17.035-13.857-30.854-30.926-30.854zM484.734 194.461h-144.446c-17.004 0-30.795 13.82-30.795 30.861 0 17.035 13.791 30.855 30.795 30.855h144.446c17.004 0 30.86-13.82 30.86-30.855 0.001-17.042-13.856-30.861-30.86-30.861zM878.332-120.247c-7.901 0-15.797 3.014-21.825 9.036l-248.337 248.343c-6.695 6.659-9.909 15.962-8.836 25.3l8.167 72.694c1.674 14.325 12.983 25.603 27.308 27.174l72.43 7.967c9.769 0.903 18.61-2.274 25.166-8.835l248.345-248.345c12.044-12.044 12.044-31.596 0-43.643l-80.598-80.659c-6.022-6.022-13.922-9.036-21.819-9.036zM662.255 170.267l216.077-216.046 37.014 37.050-216.077 216.079-33.201-3.68-3.812-33.402z"  horiz-adv-x="1024" />

    
    <glyph glyph-name="chaxun" unicode="&#58957;" d="M951.226-52.217c-5.091-5.092-11.754-7.606-18.354-7.606-6.664 0-13.324 2.514-18.354 7.606l-246.081 245.641c-65.937-56.821-148.906-88.062-236.905-88.062-200.51 0-363.559 162.733-363.559 362.805 0 200.071 163.048 362.867 363.497 362.867 200.385 0 363.497-162.796 363.497-362.867 0-88.564-31.869-172.037-89.76-238.161l246.019-245.578c10.183-10.12 10.183-26.526 0-36.645v0zM743.802 468.167c0 171.91-140.107 311.766-312.332 311.766-172.226 0-312.331-139.855-312.331-311.766 0-171.911 140.106-311.766 312.331-311.766 83.41 0 161.854 32.434 220.812 91.329 59.023 58.896 91.52 137.215 91.52 220.437v0zM421.664 667.168c-105.283-16.971-181.717-106.541-181.717-213.019 0-8.989 0.754-18.669 2.452-30.486 1.697-11.879-6.6-22.816-18.48-24.45-1.006-0.127-2.073-0.189-3.081-0.189-10.622 0-19.924 7.857-21.433 18.668-1.948 13.828-2.828 25.458-2.828 36.52 0 127.85 91.77 235.396 218.174 255.761 11.754 2.011 23.005-6.097 24.891-17.914 1.885-11.88-6.16-23.006-17.977-24.891v0z"  horiz-adv-x="1024" />

    
    <glyph glyph-name="xitongpeizhi" unicode="&#58918;" d="M944.7 192.14H584.32a14.81 14.81 0 0 0-14.93 14.69v34.62a14.81 14.81 0 0 0 14.93 14.69H944.7a14.81 14.81 0 0 0 14.93-14.69v-34.61a14.81 14.81 0 0 0-14.93-14.7zM944.7 64.14H584.32a14.81 14.81 0 0 0-14.93 14.69v34.62a14.81 14.81 0 0 0 14.93 14.69H944.7a14.81 14.81 0 0 0 14.93-14.69v-34.61a14.81 14.81 0 0 0-14.93-14.7zM944.7-63.86H584.32a14.81 14.81 0 0 0-14.93 14.69v34.62a14.81 14.81 0 0 0 14.93 14.69H944.7a14.81 14.81 0 0 0 14.93-14.69v-34.61a14.81 14.81 0 0 0-14.93-14.7zM504.35 261.73c-68.6 0-124.35 54.91-124.35 122.41s55.78 122.37 124.36 122.37 124.4-54.89 124.4-122.37a120.07 120.07 0 0 0-18.56-64h73.2a183.9 183.9 0 0 1 11.45 64c0 103.33-85.46 187.39-190.49 187.39s-190.48-84.06-190.48-187.39S399.32 196.7 504.32 196.7zM488.62 1.17h-52.89l-13.86 100.11-18.8 6.7a298.36 298.36 0 0 0-91.21 51.63l-15.37 12.79-94-39.68L133 251.12 214.14 313l-3.5 19.37a288.65 288.65 0 0 0-4.94 51.77 285.69 285.69 0 0 0 5 51.77l3.53 19.38L133 517.15l68.63 117 94.92-38.17 15.29 12.72a298.93 298.93 0 0 0 91.21 51.68l18.79 6.7 13.88 100.07H573l13.88-100.19 18.84-6.68a296.9 296.9 0 0 0 91.17-51.64l15.37-12.82 94 39.74 69.48-118.46-81.16-61.83 3.53-19.39a273.9 273.9 0 0 0 0-103.52l-2.23-12.22h97.23l-26.87 20.47a329.82 329.82 0 0 1 0 87l53.25 40.56a54.35 54.35 0 0 1 18 73.63l-77.7 132.58A55.3 55.3 0 0 1 826 700a56.49 56.49 0 0 1-40.05-4.22l-62.22-25A362.93 362.93 0 0 1 647 714.13l-9.1 65.72c-1.39 29.35-25.8 52.29-55.7 52.29H426.55c-29.9 0-54.31-22.93-55.75-52.27l-9.1-65.67a365.52 365.52 0 0 1-76.6-43.38l-62.28 25c-26.57 13.37-58.93 4-73.83-21.43L71.12 541.71a54.33 54.33 0 0 1 18.18-73.5l53.21-40.57a328.3 328.3 0 0 1 0-87l-53.23-40.59c-25.1-16-33.06-48.23-18.1-73.63L149 93.81a55.36 55.36 0 0 1 33.94-25.62 56.28 56.28 0 0 1 40 4.27l62.2 25a365.45 365.45 0 0 1 76.6-43.35l9.11-65.74c1.44-29.33 25.84-52.24 55.75-52.24h62.06a15.61 15.61 0 0 1 15.73 15.48v34.08a15.61 15.61 0 0 1-15.77 15.48z"  horiz-adv-x="1024" />

    
    <glyph glyph-name="xiangyou" unicode="&#59759;" d="M688.761819 384L280.849456-23.912363l27.193339-27.194363 435.107749 435.107749L308.043818 819.106726l-27.194362-27.194363z"  horiz-adv-x="1024" />

    
    <glyph glyph-name="songbangongshixietiao" unicode="&#58946;" d="M975.286 351.914l-419.669 419.67V513.56c-31.222 4.433-61.386 6.672-89.981 6.672-90.103 0-168.078-21.966-231.781-65.314-51.028-34.715-92.729-82.958-123.95-143.409-52.479-101.625-57.03-201.895-57.19-206.123l-3.45-86.648 43.027 75.307c33.693 58.998 127.64 104.264 271.632 130.82 81.708 15.064 158.475 20.047 194.522 21.615v-250.064l416.84 355.498z"  horiz-adv-x="1024" />

    
    <glyph glyph-name="moxing" unicode="&#58921;" d="M55.466667 132.266667l426.666666-213.333334c4.266667 0 4.266667-4.266667 8.533334-4.266666s8.533333 0 8.533333 4.266666l426.666667 213.333334c8.533333 4.266667 12.8 12.8 12.8 17.066666v512c0 4.266667 0 8.533333-4.266667 12.8l-4.266667 4.266667s0 4.266667-4.266666 4.266667h-4.266667l-426.666667 170.666666h-17.066666l-426.666667-170.666666h-4.266667l-4.266666-4.266667-4.266667-4.266667c4.266667-4.266667 4.266667-8.533333 4.266667-12.8v-512c0-8.533333 4.266667-17.066667 12.8-17.066666zM85.333333 631.466667l384-153.6v-507.733334l-384 192v469.333334z m426.666667-661.333334V477.866667l384 153.6v-469.333334l-384-192zM490.666667 810.666667l371.2-149.333334L490.666667 512 119.466667 661.333333 490.666667 810.666667z"  horiz-adv-x="1024" />

    
    <glyph glyph-name="biaoge-chuangjianshijian" unicode="&#58929;" d="M277.699048 715.093333c114.346667 22.430476 237.226667-16.091429 316.464762-101.912381 126.537143-130.194286 118.979048-367.177143-20.72381-485.180952-149.455238-144.579048-430.32381-102.15619-525.409524 85.333333-118.735238 190.171429 11.215238 464.457143 229.668572 501.76M315.001905 627.809524v-292.571429c82.895238 0 165.790476 0 248.685714 0.24381l-0.975238 49.249524c-65.584762 0-131.413333 0.731429-196.998095-1.219048V627.809524h-50.712381zM829.19619 359.619048h72.655239c0.24381-40.71619 0.24381-81.188571 0.487619-121.904762H1024v-73.142857h-121.660952c-0.24381-40.71619-0.24381-81.188571-0.487619-121.904762h-72.655239C828.952381 83.139048 828.952381 123.855238 828.952381 164.327619c-40.71619 0.24381-81.432381 0.24381-121.904762 0.487619v72.655238c40.472381 0.24381 81.188571 0.24381 121.660952 0.24381 0.24381 40.71619 0.24381 81.432381 0.487619 121.904762z"  horiz-adv-x="1024" />

    
    <glyph glyph-name="daoru" unicode="&#58940;" d="M598.4 124.8c7.199-7.199 14.4-7.199 21.599-7.199s21.599 0 21.599 7.199l280.799 280.801c7.201 7.199 7.201 14.4 7.201 21.601s-7.201 21.599-7.201 21.599c-14.4 14.4-36.001 14.4-50.399 0l-223.199-216V787.2c0 21.601-14.4 36.001-36.001 36.001s-36.001-14.4-36.001-36.001v-554.399l-223.199 216c-14.4 14.4-36.001 14.4-50.401 0-7.199-7.199-7.199-14.4-7.199-21.599 0-7.201 7.199-21.601 7.199-21.601l295.199-280.799zM1131.2 182.4c-21.601 0-36.001-14.4-36.001-36.001v-108.001c0-14.4-7.201-21.599-21.601-21.599h-907.2c-14.4 0-21.599 7.199-21.599 21.599V146.399c0 21.599-14.4 36.001-36.001 36.001S72.797 168 72.797 146.399v-108.001c0-50.399 43.2-93.599 93.599-93.599h907.2c50.399 0 93.601 43.2 93.601 93.599V146.399c0 21.599-14.4 36.001-36.001 36.001z"  horiz-adv-x="1243" />

    
    <glyph glyph-name="ccgl-dayinliebiao-3" unicode="&#58885;" d="M318.7-60h381.9c35.1 0 62.4 29.5 62.4 64.7v190.3h-507v-190.3c0-35.2 27.6-64.7 62.7-64.7zM700.6 831h-381.9c-35.1 0-62.7-27.4-62.7-62.6v-189.4h507v189.4c0 35.2-27.3 62.6-62.4 62.6zM827 579v-65h-635v65h-64.2c-35.2 0-62.8-30-62.8-65.2v-445.5c0-35.2 27.6-64.3 62.8-64.3h64.2v255h635v-255h64.5c35.1 0 64.5 29.1 64.5 64.3v445.5c0 35.2-29.3 65.2-64.5 65.2h-64.5zM827 385h-190v65h190v-65z"  horiz-adv-x="1024" />

    
    <glyph glyph-name="cailiao" unicode="&#59540;" d="M698.5 159.25c-8.813 0-22.75 6.688-24.5 13.75l-73.001 582c-7.063 51.125-39.625 83.001-89.001 83.001-52.875 0-91.938-33.125-99.001-86l-71.001-578c-1.75-8.75-17.156-16.438-25.938-14.75-8.813 1.75-15.844 8.875-15.844 19.438l72.25 578.063c7.033 68.718 65.188 121.625 135.719 121.625 66.938 0 125.125-51.125 135.687-121.625l72.25-578.063c1.813-8.813-5.25-17.625-15.813-19.438l-1.813 0.001zM509.938 14.812c-114.563 0-207.969 72.25-207.969 160.375 0 88.063 93.406 160.375 207.969 160.375s207.938-72.313 207.938-160.375c-0.001-88.125-93.376-160.375-207.938-160.375zM512 296.999c-95.188 0-170-52.5-170-123.001s67.625-121.001 162.781-121.001c95.219 0 169.219 49.5 169.219 120s-66.812 124-162 124zM910 14.812c-8.813 0-25.563 4.813-27.313 11.875l-72.687 577.313c-7.126 51.125-37.625 89.001-87.001 89.001-10.563 0-25.875 5.469-27.001 16.001-2 19.001 13.063 24.813 23.625 24.813 67.001 0 125.125-51.094 135.75-121.594l72.25-578.094c1.75-8.75-5.25-17.625-15.875-19.375l-1.75 0.062zM108.094 14.812h-10.594c-8.813 1.75-15.844 8.813-15.844 19.375l72.281 578.063c8.78 84.594 95.188 84.594 135.719 84.594 10.563 0 26.343-5.844 25.001-24.938-0.75-10.563-14.75-18.688-25.313-18.688-70.5 0-85.406-8.75-90.688-49.313l-74.655-572.030c-1.812-8.75-7.094-17.063-15.906-17.063zM263.156-103.314c-100.406 0-181.5 61.689-181.5 137.438 0 75.813 81.094 137.5 181.5 137.5 10.594 0 21.844-9.001 21.844-19.625s-9.063-21.438-19.657-21.438c-81.031 0-141.344-42.313-141.344-98.687s57.969-93.874 139.001-93.874c33.5 0 64.313 6.939 89.001 20.999 19.406 10.563 33.188 24.125 42 40 5.281 8.813 15.001 15.001 31.001 7.001 13.001-9.001 7.375-22.938 3.813-30-12.343-21.125-33.469-38.751-58.156-52.875-29.938-17.625-66.938-26.438-107.501-26.438zM746.063-110.375c-38.749 0-75.813 8.875-107.5 26.5-24.688 14.125-44.063 31.687-58.188 52.875-5.25 8.75-8.375 25.001 7.625 35.001 8.813 5.313 24-1.001 29.313-8 10.563-15.875 30-33.438 49.375-44 26.438-14.125 56.25-20 88-20 81.125 0 128 38.313 128 94.688s-55.563 97.312-136.688 97.312c-10.5 0-21.313 7.438-22 18-1.001 16.001 11.5 22.625 22 22.625 100.5 0 181.5-61.75 181.5-137.5 0.125-75.813-81.001-137.5-181.437-137.5z"  horiz-adv-x="1024" />

    
    <glyph glyph-name="xue" unicode="&#58965;" d="M439.715913 467.073604v3.885937c0 167.357887 136.086591 303.470734 303.418221 303.470734 143.83221 0 265.451559-98.828849 295.908909-237.541073 11.552788 1.837944 23.053063 2.809428 34.317031 2.809428 121.172992 0 219.79179-98.618799 219.79179-219.791791s-98.618799-219.765534-219.896815-219.765534H440.713653a183.636815 183.636815 0 0 0-183.453021 183.453021 183.663072 183.663072 0 0 0 182.481537 183.479278z m0.99774-330.882349h620.174661c4.122245 0 8.428284 0 12.47176-0.446358v0.446358c101.270689 0 183.715584 82.392383 183.715585 183.715584 0 101.296945-82.444896 183.715584-183.715585 183.715585-14.388472 0-29.275815-1.890456-44.346952-5.645113a18.221897 18.221897 0 0 0-14.309703 2.494352 18.195641 18.195641 0 0 0-7.850644 12.235453 265.714122 265.714122 0 0 1-263.744898 225.646953c-147.429328 0-267.368272-119.9652-267.368271-267.394528 0-7.246749 0.525127-14.388472 1.129022-21.477683a18.116872 18.116872 0 0 0-19.902303-19.403432 147.560609 147.560609 0 0 1-163.681999-146.4841 147.560609 147.560609 0 0 1 147.429327-147.376815zM219.766584 661.2654660000001c11.290225 0 22.7905-0.945228 34.290775-2.835684A301.606534 301.606534 0 0 0 550.071294 895.997112c62.621362 0 122.748372-18.983331 173.869458-54.770718a18.090616 18.090616 0 0 0 4.437321-25.15357 18.090616 18.090616 0 0 0-25.15357-4.43732 265.399046 265.399046 0 0 1-153.153209 48.311658A265.766635 265.766635 0 0 1 286.247628 634.22144a18.011847 18.011847 0 0 0-22.134092-14.729805 182.271486 182.271486 0 0 1-44.320695 5.645113c-101.270689 0-183.715584-82.418639-183.715585-183.689328 0-94.52281 70.787082-173.055512 164.627228-182.7441a18.064359 18.064359 0 0 0-3.7284-35.892412A219.161638 219.161638 0 0 0 0.00105 441.44742c0 121.172992 98.618799 219.765534 219.791791 219.765534z m203.145273-661.843466c9.636075 0 17.434207-7.798132 17.434208-17.407951v-26.833976h26.781463a17.460464 17.460464 0 0 0 0-34.842158h-26.781463l-0.026257-26.833976a17.460464 17.460464 0 0 0-34.868414 0l0.026256 26.80772h-26.807719a17.460464 17.460464 0 0 0 0 34.868414h26.807719v26.833976c0.026256 9.609819 7.798132 17.407951 17.434207 17.407951z m315.076035 0c9.636075 0 17.434207-7.798132 17.434207-17.407951v-26.833976h26.781463a17.460464 17.460464 0 0 0 0-34.842158h-26.781463l-0.026256-26.833976a17.460464 17.460464 0 0 0-34.868415 0l0.026257 26.80772h-26.80772a17.460464 17.460464 0 0 0 0 34.868414h26.80772v26.833976c0.026256 9.609819 7.798132 17.407951 17.434207 17.407951z m315.076034 0c9.636075 0 17.434207-7.798132 17.434207-17.407951v-26.833976h26.781463a17.460464 17.460464 0 0 0 0-34.842158h-26.781463l-0.026256-26.833976a17.460464 17.460464 0 0 0-34.868414 0l0.026256 26.80772h-26.807719a17.460464 17.460464 0 0 0 0 34.868414h26.807719v26.833976c0.026256 9.609819 7.798132 17.407951 17.434207 17.407951z"  horiz-adv-x="1312" />

    
    <glyph glyph-name="xiangshang1" unicode="&#58932;" d="M614.4 99.328c-56.491-75.264-147.797-75.776-204.799 0l-307.2 409.6c-56.491 75.605-25.429 136.532 66.56 136.532h686.080c93.184 0 123.563-60.416 66.56-136.532l-307.2-409.6z"  horiz-adv-x="1024" />

    
    <glyph glyph-name="guanyuwomen" unicode="&#58919;" d="M512 855.040c-260.096 0-471.040-210.944-471.040-471.040s210.944-471.040 471.040-471.040 471.040 210.944 471.040 471.040-210.944 471.040-471.040 471.040zM512-46.080c-237.568 0-430.080 192.512-430.080 430.080s192.512 430.080 430.080 430.080 430.080-192.512 430.080-430.080-192.512-430.080-430.080-430.080zM501.76 609.28c-0-33.932 27.508-61.44 61.44-61.44s61.44 27.508 61.44 61.44c0 33.932-27.508 61.44-61.44 61.44-33.932 0-61.44-27.508-61.44-61.44zM483.328 375.808c12.288 49.152-32.768 28.672-69.632 18.432-24.576-8.192-45.056-10.24-4.096 20.48 0 0 63.488 53.248 120.832 73.728s79.872-20.48 57.344-86.016c-24.576-65.536-98.304-256 47.104-182.272 0 0-51.2-47.104-114.688-94.208-69.632-49.152-110.592 8.192-90.112 69.632z"  horiz-adv-x="1024" />

    
    <glyph glyph-name="jindu" unicode="&#58920;" d="M834.88 744.704l-0.064-721.472h-97.152l0.064 721.472h97.152m3.456 48h-104.064c-29.76 0-44.544-22.272-44.544-44.608V19.84c0-29.76 22.272-44.608 44.544-44.608h104.064c29.696 0 44.544 22.336 44.544 44.608V748.096c0 29.76-22.336 44.608-44.544 44.608zM559.872 425.216v-401.92H462.656v401.92h97.216m3.456 48H459.264c-22.336 0-44.608-14.848-44.608-29.76v-438.464c0-14.848 22.272-29.76 44.608-29.76h104c29.76 0 44.544 14.848 44.544 29.76V443.456c0.064 14.848-22.208 29.76-44.48 29.76zM284.928 276.544v-245.888H180.288V276.544h104.64m3.392 48H176.896c-29.696 0-44.544-7.424-44.544-22.336v-297.28c0-7.36 22.272-22.336 44.544-22.336h111.488c29.696 0 44.608 7.424 44.608 22.336V302.272c-0.064 14.848-22.336 22.272-44.672 22.272z"  horiz-adv-x="1024" />

    
    <glyph glyph-name="yanjing" unicode="&#59042;" d="M982.143707 502.695333C867.62244 657.124518 699.511651 754.904495 511.819898 754.904495c-187.736778 0-355.148649-97.779977-470.324832-252.209162-50.834782-68.144006-50.834782-169.290661 0-237.390666 115.176183-154.429185 283.242969-252.209162 470.324832-252.209162 187.691753 0 355.1026 97.779977 470.323809 252.209162 50.834782 68.100004 50.834782 169.245635 0 237.390666zM512.474814 147.94168c-130.780579 0-237.172701 105.910145-237.172701 236.035807 0 130.169665 106.391099 236.035808 237.172701 236.035808 130.825604 0 237.216703-105.866143 237.216703-236.035808 0-130.125663-106.391099-236.035808-237.216703-236.035807z m0 404.62755c-93.496417 0-169.421644-75.532277-169.421644-168.591743 0-93.058442 75.924203-168.590719 169.421644-168.590719 93.541443 0 169.421644 75.532277 169.421644 168.590719 0 93.059466-75.880201 168.591743-169.421644 168.591743z"  horiz-adv-x="1024" />

    
    <glyph glyph-name="loudou" unicode="&#59031;" d="M65.819566 773.701606l343.214853-454.736808v-234.104829l206.049866-100.561323V318.964798l343.414397 454.736808H65.819566z"  horiz-adv-x="1024" />

    
    <glyph glyph-name="cloud-safety" unicode="&#59002;" d="M511.817-20.387c-60.086 0-146.261 45.515-219.576 115.963-81.086 77.941-127.619 166.845-127.619 243.954v348.327l24.307 0.394c0.855 0 82.381 1.665 166.706 35.709 85.134 34.414 141.125 74.565 141.681 74.958l14.478 10.476 14.663-10.57c0.626-0.462 55.393-40.033 141.544-74.864 84.693-34.182 166.265-35.685 167.099-35.685l23.844-0.394 0.163-348.352c0-77.085-46.534-166.011-127.666-243.929-73.341-70.471-159.538-115.987-219.624-115.987zM213.953 339.528c0-144.988 211.436-310.954 297.864-310.954 86.429 0 297.888 165.988 297.888 310.954v301.126l-10.316 1.11c-36.518 3.932-92.187 13.53-149.938 36.842-58.929 23.845-103.982 49.564-131.435 66.933l-6.199 3.931-6.199-3.931c-22.294-14.155-69.013-41.676-131.366-66.932-57.796-23.313-113.465-32.888-149.961-36.843l-10.315-1.11v-301.124l-0.023-0.002zM356.628 334.811l31.823 37.235 97.647-82.66 185.393 212.477 37.258-32.147-217.331-249.134-134.79 114.229zM511.817-8.799c-116.679 0-335.608 184.537-335.608 348.352v336.925l12.928 0.209c0.578 0 84.278 1.596 170.846 36.542 86.799 35.085 143.578 75.929 144.132 76.322l7.702 5.574 7.91-5.689c0.163-0.116 56.085-40.681 143.971-76.207 86.661-34.968 170.499-36.542 171.309-36.542l12.395-0.208 0.163-336.951c-0.025-163.814-219.045-348.327-335.748-348.327zM499.42 755.276c-21.949-13.947-67.951-41.029-129.493-65.961-56.571-22.804-111.106-32.195-146.884-36.056l-20.652-2.22v-311.51c0-153.823 217.193-322.518 309.427-322.518 92.235 0 309.451 168.695 309.451 322.518v311.51l-20.654 2.219c-35.802 3.862-90.337 13.253-146.862 36.080-58.075 23.498-102.526 48.824-129.586 65.961l-12.396 7.841-12.351-7.864zM372.981 336.129l16.79 19.682 97.553-82.591 185.324 212.406 19.751-17.044-202.207-231.787-117.211 99.334z"  horiz-adv-x="1024" />

    
    <glyph glyph-name="place-apply" unicode="&#58935;" d="M481.173 707.628c-1.492 16.426-15.253 28.907-31.788 28.907h-271.787c-15.467 0-28.801-11.093-31.467-26.347l-111.574-641.494c-1.6-9.28 0.96-18.773 7.041-25.92s14.933-11.308 24.32-11.413h444.16c10.56 0 20.373 5.227 26.347 13.973s5.12 16.533 3.307 29.654l-58.56 632.64zM884.8 400.001c9.707 0 18.773 4.373 24.853 11.84 6.080 7.573 8.427 17.387 6.293 26.88l-59.521 272.854c-3.201 14.613-16.107 25.067-31.147 25.067h-272.96c-9.707 0-18.773-4.373-24.853-11.84-6.080-7.468-8.427-17.387-6.293-26.773l59.627-272.96c3.201-14.613 16.107-25.067 31.147-25.067h272.854zM929.707 342.933c-3.201 14.613-16.107 25.067-31.147 25.067h-272.96c-9.707 0-18.773-4.373-24.853-11.84-6.080-7.573-8.427-17.387-6.293-26.88l59.627-272.854c3.201-14.613 16.107-25.067 31.147-25.067h272.854c9.707 0 18.773 4.373 24.853 11.84 6.080 7.573 8.427 17.387 6.293 26.88l-59.521 272.854z"  horiz-adv-x="1024" />

    
    <glyph glyph-name="xiangshang2" unicode="&#58936;" d="M62.8 168.9c0 4.9 1.9 9.699 5.6 13.4l430.2 430.2c7.4 7.4 19.399 7.4 26.9 0l430.1-430.2c7.4-7.4 7.4-19.399 0-26.9-7.4-7.4-19.399-7.4-26.9 0L512 572.201l-416.7-416.7c-7.4-7.4-19.399-7.4-26.9 0-3.7 3.7-5.6 8.6-5.6 13.4z"  horiz-adv-x="1024" />

    
    <glyph glyph-name="shenfen" unicode="&#58938;" d="M509.9 767.8c123.1 0 246.2 0.1 369.3-0.1 13.9 0 27.9-0.1 41.7-1.9 66.3-8.7 99.1-44.9 99.3-111.8 0.5-166.4 0.6-332.9 0-499.3-0.2-72.5-48.3-122-120.6-122.2-260.1-0.8-520.2-0.8-780.3 0.1C47.2 32.8 1.5 79 1.1 150.8c-0.9 165.7-1 331.3 0 497 0.5 80.5 40.3 119.4 121 119.9 129.3 0.6 258.6 0.1 387.8 0.1z m-112.2-566c0 32.9 1.5 63.1-0.4 93.1-2.4 37.4-31.3 71.4-68.4 74.3-48.3 3.8-97.3 3.8-145.7 0.4-33.4-2.3-58.9-25.2-64.7-58-6.4-35.7-4.4-72.9-6.1-109.7l285.3-0.1z m-55 314.4c-0.1 47.7-37.5 84.6-86 84.9-49.1 0.2-87.3-37.6-87.3-86.3 0.1-48.4 38.9-86.8 87.3-86.3 48.7 0.5 86.1 38.7 86 87.7z m337.2-203.3c44.9 0 89.8-0.2 134.7 0.1 25.9 0.2 38.2 10 39.1 29.7 1 21.5-10.5 34.2-37 34.5-90.6 0.9-181.2 0.9-271.7-0.1-26.3-0.3-37.7-13.3-36.7-34.9 0.9-20 12.6-29 39.3-29.2 44.1-0.3 88.2-0.1 132.3-0.1z m0.5-116.6v-0.2c44.8 0 89.7-0.3 134.5 0.1 25.8 0.2 38.6 10.7 38.9 29.9 0.3 19-12.9 32.7-36.9 32.9-91.2 0.7-182.4 0.5-273.7-0.3-8.4-0.1-20.3-3.8-24.4-9.9-5.8-8.5-11.2-24.3-7.1-30.9 6.2-9.9 20.5-20.1 31.8-20.7 45.6-2.3 91.3-0.9 136.9-0.9z m48.9 232c28.5 0 57.1-0.3 85.6 0.1 24.1 0.4 39.2 12.2 38.7 30.4-0.6 23.8-18.6 29.4-36.8 29.7-59.4 1-118.8 1-178.1 0-22.9-0.4-37.7-14.7-35.4-31.3 3-21.4 17.9-29 38-29 29.4 0.2 58.7 0.1 88 0.1z"  horiz-adv-x="1024" />

    
    <glyph glyph-name="yuanbing" unicode="&#59007;" d="M496.7 806.5c-240 0-435-195-435-435s195-435 435-435 435 195 435 435h-435v435zM526 831.6v-435h435c0 240.1-194.8 435-435 435z"  horiz-adv-x="1024" />

    
    <glyph glyph-name="cuowuguanbiquxiao-fangkuang" unicode="&#58937;" d="M42.145168 895.382733c307.067735 1.241878 614.297453 0 921.419183 0.593941 16.84634 0.215979 36.662386-0.80992 48.703199-14.308589 11.932824-10.906925 11.392877-28.293211 11.824835-43.141748-0.269973-306.041836 0.053995-612.083672-0.161984-918.125508 2.213782-24.999536-17.980228-49.675104-43.897673-48.217247-311.711277-0.269973-623.476549-0.215979-935.187826 0-23.811653-1.403862-45.139551 19.006127-44.43762 42.925769-0.647936 311.225325-0.107989 622.45065-0.269974 933.729969-1.997803 24.027632 18.088217 45.787487 42.00786 46.543413z m152.049014-253.882977c82.125905-81.855932 163.927843-163.981838 246.053748-245.783775 4.26558-4.319574 8.153196-8.963117 12.040813-13.660653-87.849341-83.90773-173.538896-170.191226-259.498423-256.042764 20.625967-19.600068 40.657993-39.902067 60.744013-60.096077 86.823442 84.771645 172.78297 170.461199 257.932578 256.960673 86.823442-85.149607 172.243023-171.757071 257.770593-258.256545 18.628164 19.600068 37.904264 38.5522 57.234359 57.396343 0.107989 1.673835 0.377963 5.021505 0.485952 6.69534-85.203602 83.259794-167.653476 169.327311-253.019062 252.42512 4.96751 10.474968 14.578563 17.440281 22.407792 25.647472 78.184294 78.238289 156.800545 155.990625 234.660871 234.498887-20.355994 19.978031-40.172041 40.496009-60.852002 60.150072-85.63556-86.175506-171.757071-171.919055-257.60861-257.878583-87.2554 84.933629-171.541092 172.836965-257.608609 258.958476-20.140015-20.463983-40.603998-40.550003-60.744013-61.013986z"  horiz-adv-x="1024" />

    
    <glyph glyph-name="bianjiweiwancheng" unicode="&#59461;" d="M829.545728 651.208784H196.489628c-69.926606 0-126.618792-56.633858-126.618792-126.611629v-379.841028c0-69.862137 56.691163-126.611629 126.618792-126.611629h633.0561c69.927629 0 126.618792 56.748469 126.618792 126.611629v379.841028c0.001023 69.977771-56.691163 126.611629-126.618792 126.611629z m-569.750285-379.841027c-34.93465 0-63.305815 28.312836-63.305815 63.304791 0 34.990932 28.371164 63.305815 63.305815 63.305815 34.927487 0 63.305815-28.314883 63.305814-63.305815 0-34.991955-28.378327-63.304791-63.305814-63.304791z m253.222235 0c-34.927487 0-63.305815 28.312836-63.305815 63.304791 0 34.990932 28.378327 63.305815 63.305815 63.305815 34.991955 0 63.305815-28.314883 63.305815-63.305815 0-34.991955-28.313859-63.304791-63.305815-63.304791z m253.223259 0c-34.984792 0-63.305815 28.312836-63.305815 63.304791 0 34.990932 28.321022 63.305815 63.305815 63.305815 34.990932 0 63.304791-28.314883 63.304791-63.305815 0-34.991955-28.313859-63.304791-63.304791-63.304791z"  horiz-adv-x="1024" />

    
    <glyph glyph-name="tianjia" unicode="&#58882;" d="M510.00008279229627-101.95700940799986c-267.6644868551111 0-484.6498137884444 217.0290540088889-484.6498137884444 484.7280613451851S242.3355959371853 867.4830035626667 510.00008279229627 867.4830035626667c267.6667878968889 0 484.6521148302221-217.01294428918519 484.6521148302221-484.7119516254815S777.6668706891851-101.95700940799986 510.00008279229627-101.95700940799986zM510.00008279229627 806.8963101961482c-234.20901421511107 0-424.06772371911114-189.88632564622225-424.06772371911114-424.12525825896296S275.7910673635556-41.356508577185195 510.00008279229627-41.356508577185195s424.06772371911114 189.888626688 424.06772371911114 424.1275605143704S744.2090970074075 806.8963101961482 510.00008279229627 806.8963101961482zM691.7440495312592 352.47080152177784L540.2934288687408 352.47080152177784l0-151.4736359348148c0-16.721982501925925-13.56215819377778-30.28874399288889-30.291045034666663-30.28874399288889-16.728886840888887 0-30.28874399288889 13.566761490962962-30.28874399288889 30.28874399288889l0 151.4736359348148-151.45522395970372 0c-16.728886840888887 0-30.291045034666663 13.564459235555553-30.291045034666663 30.300250415407405 0 16.724283543703702 13.564459235555553 30.28874399288889 30.291045034666663 30.28874399288889l151.45522395970372 0 0 151.48054027377776c0 16.721982501925925 13.56215819377778 30.281839653925932 30.28874399288889 30.281839653925932 16.731187882666667 0 30.291045034666663-13.557554896592592 30.291045034666663-30.281839653925932l0-151.48054027377776 151.45062187614815 0c16.731187882666667 0 30.291045034666663-13.564459235555553 30.291045034666663-30.28874399288889C722.0350945659259 366.0352607573333 708.475237413926 352.47080152177784 691.7440495312592 352.47080152177784z"  horiz-adv-x="1024" />

    
    <glyph glyph-name="shangchuanwenjian" unicode="&#58939;" d="M506.2 665c-65.9-1.7-120.2-27.7-165.6-74.2-30.1-30.8-50.6-66.7-60.1-108.7-2.1-9.2-4.3-11-14.1-11.9-47.3-4.4-83.5-26.7-105.5-68.9-37.2-71.4 8.5-162 87.9-175.8 11-1.9 22.2-2.8 33.2-4.6 20.5-3.4 34-19.6 33.7-39.9-0.3-20.5-14.5-36.8-35.2-39.1-28.5-3-56.1 2-82.3 12.9-72.1 30-117.3 83-130.4 160.4-15.3 90.8 33.5 180.1 118 217.1 18.8 8.2 31.3 19.4 40.6 37.8 27.5 54.4 66.7 98.6 119.5 129.9 40.3 23.8 84 37.7 130.3 42.8 88.9 9.9 168.7-13.4 238.8-68.6 38.8-30.5 66.8-70 88-114.2 5.5-11.5 13.4-18.2 25-23 59.2-24.2 100.8-65.8 120.7-127 41.8-128.5-47.6-243.2-153-263.9-16-3.1-32.7-4-49.1-4.1-21.1-0.2-36.7 15.7-38.2 37-1.4 20.7 12.2 38.2 32.7 41.7 13.5 2.3 27.3 3.1 40.7 6.1 48.3 10.9 85.2 53.2 92.5 102.4 11.3 76.5-47.5 131.7-104.2 139.8-4.1 0.6-8.2 1.1-12.3 1.2-8.2 0.2-12.1 4.8-14.5 12.1-4.6 14.1-8.9 28.5-14.8 42.1-32.2 73.8-89 117.2-167.2 133.2-18 3.6-36.7 5-55.1 7.4zM470.9 238.8c-4.9-4.7-8.7-8-12.1-11.7-13.6-14.7-26.9-29.6-40.6-44.2-16.5-17.5-40.5-19.5-58.3-5.2-18.5 14.9-20.2 40.9-3.4 59.5 36.9 40.7 74.1 81.2 111.2 121.8 4.4 4.8 8.7 9.6 13.2 14.2 19.2 19.6 43.6 19.7 62.7-0.2 14.6-15.3 28.9-31.1 43.2-46.7 27.1-29.7 54.3-59.4 81.2-89.3 21.6-24.1 11.5-59.2-19.1-67.2-16.4-4.3-30.7 0.6-42.2 12.8-15.3 16.3-30.3 32.9-45.5 49.3-1.6 1.7-3.9 2.8-5.8 4.2-0.6-2.3-1.6-4.6-1.6-6.9-0.1-65.6-0.1-131.1-0.3-196.7-0.1-29.7-23.4-48-52.1-41.4-16.9 3.9-29.4 18.8-29.7 37.1-0.5 27.5-0.5 55-0.5 82.4-0.1 39.8 0 79.7 0 119.5-0.3 2.3-0.3 4.5-0.3 8.7z"  horiz-adv-x="1024" />

    
    <glyph glyph-name="shigongjindu" unicode="&#58893;" d="M689.613018 667.379767l29.081994-52.398674-535.541697-296.756755 29.994227-55.882189 536.174179 297.150839 26.98994-48.620812 84.964183 149.157424-171.664042 7.344085v0.006082zM274.820587 245.046208h84.481308V91.629263h-84.481308V245.046208z m139.945085 76.650698h84.508067v-230.066427h-84.508067V321.696906z m145.115624 77.818356h84.570098v-307.884783h-84.570098v307.884783z m141.12369 75.692245h84.596857V91.629263h-84.596857V475.207507zM191.883994 545.67448c23.45534-19.526656 50.243371-29.288767 80.237599-29.288767 16.991864 0 29.740018 2.900902 38.268791 8.792712 8.577425 5.899108 12.849109 13.349012 12.849108 22.523645 0 7.926698-3.383777 15.371737-10.151331 22.42999-6.752958 7.050954-24.747062 16.624538-53.82784 28.70737-45.732074 19.332046-68.553716 47.557757-68.553716 84.584694 0 27.162655 10.339859 48.336196 31.032957 63.313849 20.691881 15.07739 48.14037 22.523646 82.25181 22.523646 28.613714 0 52.611529-3.674475 71.938709-11.112217v-58.479013c-19.527872 13.430505-42.552638 20.101971-68.845631 20.101971-15.357142 0-27.638233-2.806029-36.825029-8.413223-9.161254-5.607193-13.835537-13.148321-13.835537-22.523645 0-7.539911 3.204979-14.503291 9.489658-20.882843 6.285895-6.374686 21.847377-14.977653 46.607818-25.81255 29.092941-12.462322 48.988139-25.610643 59.911827-39.427935 10.935851-13.827023 16.333839-30.361553 16.33384-49.496556 0-28.035967-9.948207-49.49534-29.854352-64.18716-19.908577-14.694252-48.152533-22.136859-84.761059-22.136859-33.465579 0-60.938393 5.417449-82.379522 16.238967v62.540275l0.1119 0.003649z m0 0"  horiz-adv-x="1024" />

    
    <glyph glyph-name="zhiliangyanshou" unicode="&#58894;" d="M774.233811 417.874135L529.738843 136.046921a24.348786 24.348786 0 0 0-18.454261-8.459899 24.344948 24.344948 0 0 0-18.450423 8.459899L248.253985 417.874135a25.164762 25.164762 0 0 0-3.246249 28.019526l93.371298 180.85191a24.409427 24.409427 0 0 0 21.78418 13.411023h302.245038a24.499238 24.499238 0 0 0 21.782645-13.411023L777.564498 445.893661a25.183184 25.183184 0 0 0-3.330687-28.019526zM527.003826 310.319592L608.247556 407.535112c5.922159 7.125013 4.944216 17.700462-2.177727 23.622621-7.124246 5.919088-17.701229 4.944984-23.622621-2.18003l-72.612653-86.880336-73.554519 88.16379c-6.09564 7.110429-16.778555 7.994723-23.961907 1.982753-7.181049-6.012738-8.190465-16.686441-2.2637-23.938111l79.021481-96.362699c0.171178-0.256384 9.737979-9.48313 9.994363-9.739514 7.10045-5.572894 17.341217-4.514351 23.150537 2.39266a10.792684 10.792684 0 0 1 4.783016 5.723346z m0 0"  horiz-adv-x="1024" />

    
    </font>
</defs>
</svg>
