<?xml version="1.0" standalone="no"?><!DOCTYPE svg PUBLIC "-//W3C//DTD SVG 1.1//EN" "http://www.w3.org/Graphics/SVG/1.1/DTD/svg11.dtd"><svg t="1514186221299" class="icon" style="" viewBox="0 0 1024 1024" version="1.1" xmlns="http://www.w3.org/2000/svg" p-id="6233" xmlns:xlink="http://www.w3.org/1999/xlink" width="200" height="200"><defs><style type="text/css"></style></defs><path d="M832.192 296.96c0.768 10.112 1.28 20.288 1.28 30.656l0 506.112c0 83.264-41.664 158.208-130.432 158.208L311.552 991.936c-88.704 0-130.368-74.944-130.368-158.208L181.184 327.616c0-10.304 0.768-20.544 1.984-30.656l-67.2 0L115.968 170.432l195.648-0.128L311.616 145.92c0-56.32 53.44-102.08 119.36-102.08l152.832 0c65.92 0 119.232 45.76 119.232 102.08l0 23.552 195.712 0.832L898.752 296.96 832.192 296.96 832.192 296.96zM637.76 145.92c0-21.056-24.64-38.784-54.016-38.784L430.912 107.136c-29.312 0-54.08 17.792-54.08 38.784l0 24.32 260.928 0L637.76 145.92 637.76 145.92zM768.192 327.616c0-10.56-0.704-20.8-2.112-30.656L248.512 296.96C247.168 306.816 246.4 317.12 246.4 327.616l0 506.112c0 48.512 12.48 94.976 65.152 94.976l391.488 0c52.864 0 65.216-46.528 65.216-94.976L768.256 327.616 768.192 327.616zM311.552 865.664 311.552 359.936l65.28 0 0 505.728L311.552 865.664 311.552 865.664zM474.688 865.664 474.688 359.936l65.152 0 0 505.728L474.688 865.664 474.688 865.664zM637.76 865.664 637.76 359.936l65.28 0 0 505.728L637.76 865.664 637.76 865.664z" p-id="6234"></path></svg>