<?xml version="1.0" standalone="no"?><!DOCTYPE svg PUBLIC "-//W3C//DTD SVG 1.1//EN" "http://www.w3.org/Graphics/SVG/1.1/DTD/svg11.dtd"><svg t="1513935417547" class="icon" style="" viewBox="0 0 1024 1024" version="1.1" xmlns="http://www.w3.org/2000/svg" p-id="8193" xmlns:xlink="http://www.w3.org/1999/xlink" width="200" height="200"><defs><style type="text/css"></style></defs><path d="M405.76 911.36 138.24 911.36C107.09504 911.36 81.92 886.18496 81.92 855.04 81.92 823.89504 107.09504 798.72 138.24 798.72L405.76 798.72C436.90496 798.72 462.08 823.89504 462.08 855.04 462.08 886.18496 436.90496 911.36 405.76 911.36" p-id="8194" fill="#707070"></path><path d="M645.12 573.44 138.24 573.44C107.09504 573.44 81.92 548.26496 81.92 517.12 81.92 485.97504 107.09504 460.8 138.24 460.8L645.12 460.8C676.26496 460.8 701.44 485.97504 701.44 517.12 701.44 548.26496 676.26496 573.44 645.12 573.44" p-id="8195" fill="#707070"></path><path d="M872.6528 235.52 138.24 235.52C107.09504 235.52 81.92 210.34496 81.92 179.2 81.92 148.05504 107.09504 122.88 138.24 122.88L872.6528 122.88C903.79776 122.88 928.9728 148.05504 928.9728 179.2 928.9728 210.34496 903.79776 235.52 872.6528 235.52" p-id="8196" fill="#707070"></path></svg>