<?xml version="1.0" standalone="no"?><!DOCTYPE svg PUBLIC "-//W3C//DTD SVG 1.1//EN" "http://www.w3.org/Graphics/SVG/1.1/DTD/svg11.dtd"><svg t="1513929689402" class="icon" style="" viewBox="0 0 1024 1024" version="1.1" xmlns="http://www.w3.org/2000/svg" p-id="5062" xmlns:xlink="http://www.w3.org/1999/xlink" width="200" height="200"><defs><style type="text/css"></style></defs><path d="M443.904 418.2016l58.73664 0 0 34.36544-58.73664 0 0-34.36544Z" p-id="5063" fill="#d81e06"></path><path d="M443.904 501.94432l58.73664 0 0 35.00032-58.73664 0 0-35.00032Z" p-id="5064" fill="#d81e06"></path><path d="M512 0C229.21216 0 0 229.21216 0 512c0 282.76736 229.21216 512 512 512 282.76736 0 512-229.23264 512-512C1024 229.21216 794.76736 0 512 0zM271.40096 165.0688c33.73056 41.6768 61.0304 77.29152 81.85856 106.88512l-71.24992 46.87872c-22.50752-36.67968-47.7184-73.54368-75.61216-110.63296L271.40096 165.0688zM783.2576 771.95264c-120.4224 1.26976-228.74112 1.04448-324.99712-0.6144-72.0896 0-126.03392-19.37408-161.85344-58.12224-13.76256 14.15168-36.4544 38.54336-68.13696 73.1136L192.63488 695.7056c17.08032-14.58176 36.88448-30.8224 59.37152-48.7424L252.0064 466.944 196.4032 466.944l0-82.49344 133.7344 0 0 264.37632c24.576 32.07168 67.072 48.128 127.50848 48.128 90.4192 3.33824 209.38752 3.13344 356.88448-0.6144C801.60768 726.75328 791.18336 751.94368 783.2576 771.95264zM660.76672 588.82048l-58.12224 0L602.64448 380.06784l58.12224 0L660.76672 588.82048zM662.016 614.44096c19.16928 0 28.73344-11.03872 28.73344-33.11616L690.74944 368.82432l71.8848 0 0 233.12384c0 54.1696-26.86976 81.03936-80.62976 80.62976-32.91136 0.43008-55.00928 0.22528-66.2528-0.6144-2.92864-21.25824-7.08608-44.78976-12.4928-70.61504C621.60896 612.98688 641.18784 614.03136 662.016 614.44096zM773.26336 371.93728c-32.91136-12.92288-63.54944-28.32384-91.8528-46.24384l0 16.24064-217.4976 0 0-18.75968c-23.3472 15.42144-47.3088 29.5936-71.8848 42.496l180.61312 0 0 251.24864c0 42.496-20.84864 63.75424-62.50496 63.75424-8.74496 0-22.50752-0.2048-41.24672-0.63488-2.10944-16.65024-5.632-38.95296-10.6496-66.8672 10.83392 0.43008 21.68832 0.63488 32.50176 0.63488 7.92576 0 11.8784-5.8368 11.8784-17.48992l0-9.99424-58.73664 0 0 91.87328-70.00064 0L373.88288 375.07072c-1.26976 0.83968-2.49856 1.45408-3.76832 1.88416-14.58176-24.1664-30.208-47.08352-46.87872-68.75136 82.08384-34.57024 152.71936-81.87904 211.88608-141.86496l121.87648 0-23.7568 21.23776c50.83136 47.9232 111.88224 85.21728 183.13216 111.88224C795.136 333.18912 780.75904 357.376 773.26336 371.93728z" p-id="5065" fill="#d81e06"></path><path d="M573.89056 235.06944c-20.41856 19.59936-41.45152 37.72416-63.13984 54.3744l119.99232 0C610.34496 272.7936 591.40096 254.64832 573.89056 235.06944z" p-id="5066" fill="#d81e06"></path></svg>